<svg width="82" height="86" viewBox="0 0 82 86" fill="none" xmlns="http://www.w3.org/2000/svg">
<path opacity="0.1" d="M35.732 65.041L58.3267 78.085L44.7041 85.9999L22.1094 72.956L35.732 65.041Z" fill="black"/>
<g opacity="0.1">
<path d="M76.3062 44.9754C78.8279 46.4255 78.835 48.7829 76.342 50.233C73.8489 51.6831 69.7985 51.6831 67.2769 50.2258C64.7624 48.7757 64.7553 46.4255 67.2483 44.9825C69.7343 43.5324 73.7989 43.5324 76.3062 44.9754Z" fill="black"/>
</g>
<path d="M79.4287 40.2817L66.6133 40.4818L68.1563 48.4253H68.1777C68.2849 49.0539 68.7563 49.6682 69.5921 50.154C71.4994 51.2541 74.5783 51.2541 76.4713 50.154C77.2999 49.6682 77.7714 49.0539 77.8642 48.4253H77.8714L79.4287 40.2817Z" fill="url(#paint0_linear_506_2812)"/>
<path d="M77.5348 37.6524C80.0564 39.1097 80.0635 41.4599 77.5705 42.91C75.0774 44.3601 71.0271 44.3601 68.5054 42.9028C65.9909 41.4527 65.9838 39.1097 68.4769 37.6595C70.9699 36.2094 75.0274 36.2023 77.5348 37.6524Z" fill="#FFE85F"/>
<path d="M76.141 38.3593C77.984 39.4237 77.984 41.1381 76.1625 42.2025C74.3409 43.2597 71.3764 43.2597 69.5405 42.1954C67.7046 41.131 67.6975 39.4237 69.5191 38.3593C71.3406 37.3021 74.3052 37.3021 76.141 38.3593Z" fill="#4D9B12"/>
<path d="M68.3542 39.0604C68.3542 39.0604 63.2467 32.5956 68.2685 20.9731C68.2685 20.9731 72.6832 26.5379 70.1544 40.8034C70.1472 40.8034 69.1686 40.4391 68.3542 39.0604Z" fill="#73C139"/>
<path d="M68.3262 21.0586C68.419 25.5304 68.6762 33.3025 69.2905 40.2316C69.7692 40.6674 70.1478 40.8103 70.1478 40.8103C72.5051 27.502 68.8405 21.7729 68.3262 21.0586Z" fill="#4D9B12"/>
<path d="M70.8698 38.2672C70.8698 38.2672 66.7766 31.1166 73.47 20.3657C73.47 20.3657 77.0132 26.5305 72.3842 40.2603C72.3842 40.2603 71.4699 39.7531 70.8698 38.2672Z" fill="#73C139"/>
<path d="M73.4689 20.3726C72.8975 24.8158 71.6331 32.5236 71.2188 39.467C71.6331 39.9671 71.9831 40.1671 71.9831 40.1671C77.0121 28.1732 73.869 21.1512 73.4689 20.3726Z" fill="#4D9B12"/>
<path d="M71.1265 41.0895C71.1265 41.0895 64.9975 38.925 63.4688 29.0527C63.4688 29.0527 68.7549 30.91 73.0624 41.5038C73.0624 41.5038 72.2552 41.6681 71.1265 41.0895Z" fill="#73C139"/>
<path d="M63.5469 29.082C65.497 32.0323 68.9188 37.1113 72.2476 41.4759C72.7477 41.5617 73.0691 41.5045 73.0691 41.5045C69.0474 31.6322 64.1898 29.3463 63.5469 29.082Z" fill="#4D9B12"/>
<path d="M73.8475 40.1379C73.8475 40.1379 70.5686 36.3875 73.2546 29.2227C73.2546 29.2227 76.0834 32.4515 74.9904 41.1379C74.9904 41.1379 74.3832 40.9451 73.8475 40.1379Z" fill="#73C139"/>
<path d="M73.291 29.2661C73.4839 31.9663 73.8696 36.6525 74.4483 40.8171C74.7554 41.0671 74.9912 41.1385 74.9912 41.1385C76.0127 33.0379 73.6196 29.6804 73.291 29.2661Z" fill="#4D9B12"/>
<path d="M75.3056 37.7314C75.3056 37.7314 72.1696 32.0381 77.5843 23.6445C77.5843 23.6445 80.2988 28.5521 76.4771 39.3173C76.4771 39.3244 75.7627 38.9101 75.3056 37.7314Z" fill="#73C139"/>
<path d="M77.6278 23.7222C77.1206 27.2153 76.2991 33.2944 75.8848 38.7592C76.1991 39.1592 76.4777 39.3235 76.4777 39.3235C80.0351 29.2798 77.9278 24.3436 77.6278 23.7222Z" fill="#4D9B12"/>
<path d="M76.1137 38.7951C76.1137 38.7951 75.3708 33.9947 81.3141 29.5015C81.3141 29.5015 81.9713 33.6304 76.528 40.2167C76.528 40.2095 76.128 39.7309 76.1137 38.7951Z" fill="#73C139"/>
<path d="M81.3225 29.5527C80.0653 31.8744 77.9437 35.9318 76.2578 39.6607C76.3793 40.0251 76.5293 40.2036 76.5293 40.2036C81.594 34.0745 81.3725 30.0742 81.3225 29.5527Z" fill="#4D9B12"/>
<g opacity="0.1">
<path d="M0.214844 63.5689L19.245 74.627L63.1702 49.2677L43.6828 37.8096L0.214844 63.5689Z" fill="black"/>
</g>
<path d="M17.8086 61.7837L17.8157 63.891L28.0738 69.8487L28.0595 67.7413L17.8086 61.7837Z" fill="#95C4DE"/>
<path d="M28.0586 67.7414L28.0729 69.8487L52.3678 55.8261L52.3607 53.7188L28.0586 67.7414Z" fill="#A9D6EA"/>
<path d="M17.8086 61.7838L28.0595 67.7415L52.3615 53.7189L42.1107 47.7612L17.8086 61.7838Z" fill="#DEF6FF"/>
<path opacity="0.5" d="M17.8086 61.7838L52.3615 53.7189L42.1107 47.7612L17.8086 61.7838Z" fill="#DEF6FF"/>
<path d="M27.2811 63.8197L25.4595 62.7625L25.4023 43.8037L27.2239 44.8609L27.2811 63.8197Z" fill="#95C4DE"/>
<path d="M27.2239 44.8615L25.4023 43.8043L41.9109 34.2749L43.7325 35.3321L27.2239 44.8615Z" fill="#C0C5D1"/>
<path d="M43.7331 35.332L43.7903 54.2908L27.2817 63.8202L27.2246 44.8614L43.7331 35.332Z" fill="#A9D6EA"/>
<path d="M10.6582 65.9847L8.89378 65.4918L1.35742 28.3101L3.11472 28.803L10.6582 65.9847Z" fill="#95C4DE"/>
<path d="M3.11472 28.8024L1.35742 28.3095L50.3973 0L52.1546 0.485756L3.11472 28.8024Z" fill="#A9D6EA"/>
<path d="M52.1551 0.485352L59.6986 37.6742L10.6587 65.9837L3.11523 28.802L52.1551 0.485352Z" fill="#DEF6FF"/>
<path d="M50.84 3.45068L57.5406 36.9464L12.1368 63.22L5.17188 29.2886L50.84 3.45068Z" fill="url(#paint1_linear_506_2812)"/>
<path d="M45.1115 10.9946L45.4044 12.2805L38.2252 16.4237L37.9395 15.1378L45.1115 10.9946Z" fill="#649DD5"/>
<path d="M31.6895 31.4885L48.3123 21.8877L51.9269 37.8962L35.304 47.497L31.6895 31.4885ZM49.2624 31.4814L47.6336 24.2808L33.5253 32.4314L35.1469 39.6321L49.2624 31.4814Z" fill="#649DD5"/>
<path d="M47.0473 16.2891L47.3259 17.5035L30.7031 27.0971L30.4316 25.8899L47.0473 16.2891Z" fill="#649DD5"/>
<path d="M25.5896 30.7969L25.811 31.8041L15.8887 37.5332L15.6602 36.5259L25.5896 30.7969Z" fill="#649DD5"/>
<path d="M25.0739 28.5254L25.3025 29.5326L15.3731 35.2688L15.1445 34.2544L25.0739 28.5254Z" fill="#649DD5"/>
<path d="M13.6445 33.01L26.3242 25.688L31.8746 50.2829L19.195 57.605L13.6445 33.01ZM29.8602 49.7472L28.2458 42.6037L18.3164 48.3328L19.9308 55.4834L29.8602 49.7472ZM26.9385 36.7961L26.7099 35.7888L16.7805 41.5179L17.0091 42.5251L26.9385 36.7961ZM25.3027 29.5312L25.0741 28.5239L15.1447 34.253L15.3733 35.2602L25.3027 29.5312ZM26.4242 34.5245L26.1956 33.5172L16.2662 39.2463L16.4948 40.2535L26.4242 34.5245ZM25.8098 31.8028L25.5812 30.7956L15.6518 36.5246L15.8804 37.5318L25.8098 31.8028Z" fill="#8FC1EA"/>
<path d="M47.6678 19.0171L47.9392 20.2243L31.3164 29.8251L31.0449 28.6108L47.6678 19.0171Z" fill="#649DD5"/>
<path d="M31.0019 19.1377L31.2876 20.4235L13.1718 30.8887L12.8789 29.6029L31.0019 19.1377Z" fill="#649DD5"/>
<g opacity="0.8">
<path d="M46.9613 8.11621L11.2012 28.7608L18.1732 59.6634L53.9334 39.0188L46.9613 8.11621ZM47.94 20.2244L41.8538 23.739L31.3172 29.8252L31.0457 28.6179L47.6686 19.0171L47.94 20.2244ZM47.0471 16.2883L47.3185 17.4956L30.7028 27.0964L30.4314 25.8891L47.0471 16.2883ZM46.8113 15.2311L30.1885 24.8248L29.917 23.6104L46.5399 14.0096L46.8113 15.2311ZM12.2441 29.1966L45.6112 9.93065L46.2256 12.6523L12.8585 31.9182L12.2441 29.1966ZM19.1947 57.599L13.6442 33.004L26.3239 25.682L31.8744 50.2769L19.1947 57.599ZM31.6886 31.4896L48.3115 21.8888L51.9261 37.8973L35.3032 47.4981L31.6886 31.4896Z" fill="#649DD5"/>
</g>
<path d="M49.2605 31.4823L47.6318 24.2817L33.5234 32.4324L35.1521 39.633L49.2605 31.4823Z" fill="#8FC1EA"/>
<path d="M46.5408 14.0166L46.8123 15.231L30.1894 24.8318L29.918 23.6174L46.5408 14.0166Z" fill="#649DD5"/>
<path d="M28.2536 42.605L29.8609 49.7484L19.9386 55.4775L18.3242 48.334L28.2536 42.605Z" fill="#649DD5"/>
<path d="M12.2461 29.1961L45.6132 9.93018L46.2275 12.6518L12.8604 31.9178L12.2461 29.1961ZM31.2906 20.4239L30.9977 19.1381L12.8747 29.6033L13.1676 30.8891L31.2906 20.4239ZM45.406 12.2804L45.1131 10.9946L37.9411 15.1378L38.2269 16.4236L45.406 12.2804Z" fill="#8FC1EA"/>
<path d="M26.2028 33.5171L26.4243 34.5243L16.502 40.2605L16.2734 39.2461L26.2028 33.5171Z" fill="#649DD5"/>
<path d="M26.7094 35.7881L26.938 36.7953L17.0157 42.5315L16.7871 41.5171L26.7094 35.7881Z" fill="#649DD5"/>
<path d="M17.1441 22.4229L19.1014 32.088L13.6438 35.1811L11.1508 34.4239L9.47205 33.8738L8.19336 27.5876L17.1441 22.4229Z" fill="#FFF6E2"/>
<path d="M9.47266 33.8739L12.6515 32.481L13.6444 35.1812L9.47266 33.8739Z" fill="#F6BB43"/>
<path d="M15.9573 25.1016L16.0787 25.6802L10.4997 28.9733L10.3711 28.3233L15.9573 25.1016Z" fill="#BCD5F3"/>
<path d="M16.3882 26.8662L16.5025 27.4448L10.9235 30.738L10.7949 30.0951L16.3882 26.8662Z" fill="#BCD5F3"/>
<path d="M16.9293 28.5298L17.0436 29.1084L11.4717 32.4015L11.3359 31.7586L16.9293 28.5298Z" fill="#BCD5F3"/>
<g opacity="0.1">
<path d="M62.0697 60.4184C65.6771 62.4972 65.6914 65.876 62.1126 67.9548C58.5337 70.0335 52.7117 70.0335 49.1043 67.9548C45.504 65.876 45.4826 62.4972 49.0614 60.4184C52.6403 58.3397 58.4623 58.3397 62.0697 60.4184Z" fill="black"/>
</g>
<path d="M56.385 26.8392C56.385 26.8392 56.2421 25.1747 53.8776 25.2962C51.5131 25.4176 49.1629 25.8534 49.1629 25.8534L45.2626 22.0459C45.2626 22.0459 44.2482 22.2602 44.0625 22.9531C44.0625 22.9531 46.7556 27.5678 48.6915 28.3036C48.6843 28.3036 57.1922 30.4823 56.385 26.8392Z" fill="#DEF0F9"/>
<path d="M45.0617 22.1024C45.0617 22.1024 44.8617 20.9094 44.5259 20.4808C44.1902 20.0593 43.8545 19.8593 43.7187 19.8093C43.5759 19.7593 43.8759 20.3165 43.983 20.4951C44.083 20.6737 44.033 21.1737 43.0687 20.3522C42.1043 19.5307 42.2472 19.8236 42.24 19.9307C42.2329 20.0379 42.8901 22.0738 44.1116 22.8167C44.1045 22.8167 44.3259 22.381 45.0617 22.1024Z" fill="#EFB185"/>
<path d="M48.6817 28.3024C46.7458 27.5595 44.0527 22.9519 44.0527 22.9519C44.1027 22.7591 44.2242 22.6091 44.367 22.4805C45.01 23.352 46.9172 25.895 48.1459 27.2309C49.6461 28.8524 56.3966 27.5523 56.4181 27.4952C56.0895 30.1954 48.6817 28.3024 48.6817 28.3024Z" fill="#C1DBE5"/>
<path d="M55.3983 59.0695C55.3983 59.0695 54.4697 59.2909 54.7411 59.8195C55.0197 60.341 56.177 61.0696 56.3484 61.4054C56.5198 61.734 57.5199 62.8841 57.7914 62.7483C58.07 62.6055 58.8272 62.7126 58.6129 61.3197C58.4129 59.9267 56.6556 58.898 55.3983 59.0695Z" fill="#111114"/>
<path d="M56.633 62.0551C56.633 62.0551 57.3402 63.2909 56.2829 63.8196C55.2186 64.3482 55.4114 63.5767 53.0898 64.6839C50.761 65.784 50.2324 64.5768 50.2324 64.2839C50.2324 63.991 51.7683 63.1624 52.2754 62.9195C52.7826 62.6766 53.747 62.2194 53.747 62.2194L56.6544 61.6479L56.633 62.0551Z" fill="#111114"/>
<path d="M56.6688 40.3594C56.6688 40.3594 57.3974 48.4743 57.4831 49.3887C57.5617 50.3031 59.219 57.418 58.8832 60.6182C58.8832 60.6182 57.2688 62.547 55.5472 60.9111C55.5472 60.9111 54.2543 51.9318 53.6185 49.9388C52.9899 47.9386 52.5898 41.7023 52.5898 41.7023L56.6688 40.3594Z" fill="#2D2D2D"/>
<path d="M53.854 39.639C53.854 39.639 54.4755 44.8823 55.0684 50.0828C55.0684 50.0828 56.8114 60.2979 56.8614 61.8123C56.8614 61.8123 53.7468 63.2625 53.1111 61.7909C53.1111 61.7909 51.4324 52.833 50.9823 50.9757C50.5323 49.1184 48.9321 43.3536 49.0822 40.1962C49.225 37.0388 53.854 39.639 53.854 39.639Z" fill="#2D2D2D"/>
<path d="M56.8621 61.8044C56.8121 60.2899 55.0691 50.0748 55.0691 50.0748C54.669 46.5745 54.1833 42.4741 53.9618 40.5454L51.8259 41.4098C51.8259 41.4098 51.3973 46.1387 52.7546 51.8392C53.7975 56.2539 54.7333 60.6185 55.1048 62.3615C56.0049 62.2044 56.8621 61.8044 56.8621 61.8044Z" fill="#2D2D2D"/>
<path d="M58.8823 60.619C59.218 57.4187 57.5608 50.3038 57.4822 49.3895C57.4036 48.518 57.0321 41.5531 56.9679 40.853L55.0106 41.946C55.0106 41.946 54.9534 47.8036 55.8106 51.0539C56.5964 54.0184 56.775 59.9046 57.175 61.5548C58.1608 61.4762 58.8823 60.619 58.8823 60.619Z" fill="#2D2D2D"/>
<path d="M55.6754 25.3081C55.6754 25.3081 57.4827 25.9724 56.8398 28.9941C56.1969 32.0158 55.7254 33.9731 55.904 35.0446C56.0826 36.1233 56.8112 40.1094 57.1256 40.8237C57.1256 40.8237 57.397 42.0524 52.818 43.2096C52.818 43.2096 48.6748 44.1668 49.082 41.1237C49.4892 38.0735 48.5534 34.9018 48.3105 33.7731C48.0676 32.6444 47.1247 30.4371 49.8035 28.5798C52.4823 26.7082 53.8324 25.401 55.6754 25.3081Z" fill="#DEF0F9"/>
<path d="M53.4906 24.1015C53.4906 24.1015 53.4763 25.6445 54.112 26.5374C54.6835 27.3446 51.1904 28.5376 51.0189 27.7518C50.9975 27.6661 51.5404 26.2803 50.4975 24.8301C49.9474 24.0586 53.4906 24.1015 53.4906 24.1015Z" fill="#EFB185"/>
<path d="M54.0905 26.5951C53.6191 25.9308 53.5048 24.9093 53.4833 24.4307L51.0117 26.0237V26.0308C51.1117 26.0451 52.9262 26.2951 53.4476 27.5166C53.9691 27.2309 54.2977 26.888 54.0905 26.5951Z" fill="#DD9569"/>
<path d="M49.2618 20.4875C49.2618 20.4875 48.8546 21.9305 49.1046 23.102C49.3689 24.3664 49.2046 24.645 49.3547 25.2093C49.4118 25.4451 49.4761 25.8165 49.7404 26.0166C50.1762 26.3523 51.0048 26.4023 52.062 25.8737C53.3407 25.2308 54.5408 23.2378 53.7836 21.659C53.0264 20.0803 51.1119 18.9231 49.2618 20.4875Z" fill="#EFB185"/>
<path d="M53.9194 23.4515C53.2194 22.03 51.6907 20.3941 51.6907 20.3013C51.6907 20.2441 51.2192 20.0155 50.6835 19.7798C50.2191 19.8584 49.7334 20.0798 49.2548 20.487C49.2548 20.487 49.1476 20.8727 49.0762 21.4085C49.4333 21.7299 50.1263 22.0585 50.262 22.3514C50.5692 23.0372 50.562 24.1302 50.4048 24.6231C50.2477 25.1231 51.1835 25.7231 51.0478 26.166C51.0406 26.1875 51.0406 26.2089 51.0478 26.2232C51.3549 26.166 51.6907 26.0589 52.055 25.8732C52.8765 25.4731 53.6623 24.5088 53.9194 23.4515Z" fill="#E6A376"/>
<path d="M48.8051 19.9649C48.8051 19.9649 48.7479 21.165 49.9766 21.6079C50.7124 21.8722 50.7767 23.008 50.7696 23.2223C50.7624 23.4366 50.6624 24.4081 50.7624 24.5224C50.9481 24.7367 51.4196 23.9438 51.6839 23.9652C52.3625 24.0152 52.1768 24.6653 51.6482 25.3868C51.0839 26.144 52.8054 26.2369 53.5198 25.5797C53.8984 25.2296 54.0341 25.0368 54.4556 23.8867C55.0699 22.2222 54.8985 20.3221 52.9197 19.5149C50.9267 18.7219 50.0123 20.2935 48.8051 19.9649Z" fill="#221101"/>
<path d="M53.5053 25.5803C53.8839 25.2303 54.0196 25.0374 54.4411 23.8873C55.0554 22.2229 54.884 20.3227 52.9052 19.5155C50.9265 18.7154 50.0121 20.287 48.8049 19.9584C48.8049 19.9584 48.7977 20.1656 48.8692 20.4299C49.4692 20.4584 51.1265 20.5942 51.6194 21.2442C52.2337 22.0443 52.7695 21.7014 52.8481 22.7729C52.9267 23.8016 53.341 25.116 51.6837 25.8875C52.3695 26.2875 53.2338 25.8375 53.5053 25.5803Z" fill="#341C09"/>
<path d="M51.1529 27.2521L50.0957 28.3664C50.0957 28.3664 53.846 29.0022 54.7104 27.102C54.8318 26.8306 54.5532 26.0091 53.9032 25.9234C53.9032 25.9162 53.946 27.3806 51.1529 27.2521Z" fill="#C1DBE5"/>
<path d="M48.7969 41.025C49.2041 37.9747 48.5469 34.903 48.304 33.7743C48.0611 32.66 47.1397 30.4812 49.7256 28.6382C50.7542 29.1097 52.2758 30.2097 51.7329 32.4171C51.0543 35.153 51.3757 40.8749 51.4614 43.3609C50.2971 43.3537 48.554 42.8965 48.7969 41.025Z" fill="#C1DBE5"/>
<path d="M42.632 23.4878C42.632 23.4878 42.7463 22.5948 42.4677 22.2948C42.1891 21.9948 41.5819 20.759 41.3247 20.5947C41.0676 20.4304 41.1676 20.9233 41.2461 21.2447C41.3247 21.5733 41.2747 22.2091 41.1676 22.1234C41.0533 22.0448 40.5318 22.4162 40.6318 22.8806C40.7247 23.3378 41.4676 24.0807 41.4819 24.1807C41.489 24.2878 42.632 23.4878 42.632 23.4878Z" fill="#EFB185"/>
<path d="M51.0174 30.6678C51.0174 30.6678 51.3317 29.1962 49.253 28.6748C47.1814 28.1604 45.0312 27.9176 45.0312 27.9176L42.6595 23.5958C42.6595 23.5958 41.7237 23.5172 41.3809 24.0601C41.3809 24.0601 42.4952 28.7533 43.9739 29.9034C43.9739 29.9106 50.7602 34.0324 51.0174 30.6678Z" fill="#DEF0F9"/>
<path d="M51.7269 75.2772C51.7269 75.2772 50.4125 76.3772 50.6911 77.5345C50.6911 77.5345 51.134 77.9988 51.5412 77.1773C51.9555 76.3558 52.3913 75.2557 51.7269 75.2772Z" fill="#0A1014"/>
<path d="M50.6914 77.6484C50.6914 77.6484 52.6773 78.3342 53.013 77.6841C53.3488 77.0341 53.7202 76.5197 53.956 76.284C54.1989 76.0483 55.8418 73.2909 55.2989 72.8552C54.756 72.4194 53.9703 73.198 53.7345 73.3909C53.4988 73.5838 50.9986 75.5197 50.9986 75.5197L50.6914 77.6484Z" fill="#111114"/>
<path d="M34.2257 65.405C34.2257 65.405 41.1834 69.3982 42.7622 70.7554C44.0694 71.877 51.3129 75.3415 51.3129 75.3415C51.3129 75.3415 50.97 76.0273 50.7271 77.5846C50.7271 77.5846 44.1123 77.4917 39.9476 73.6628C39.9476 73.6628 25.975 70.7554 27.168 63.5405C27.168 63.5477 31.7755 64.3763 34.2257 65.405Z" fill="#131C24"/>
<path d="M53.9548 76.2843C54.1691 76.0771 55.4906 73.8698 55.3906 73.0769C55.1549 73.0412 54.7763 73.084 54.5691 73.5984C54.2405 74.3913 53.2333 76.2129 53.0547 76.4486C52.8975 76.6486 51.9974 77.5201 52.1403 77.9559C52.5403 77.9773 52.8904 77.9273 53.0118 77.6844C53.3476 77.0415 53.7119 76.52 53.9548 76.2843Z" fill="#1D1D21"/>
<path d="M47.6836 81.1141C47.6836 81.1141 49.9338 81.4641 50.1695 80.8783C50.4053 80.2926 50.6838 79.814 50.8767 79.5854C51.0696 79.3639 52.2697 76.8423 51.7625 76.5065C51.2625 76.1708 50.641 76.9066 50.4553 77.0923C50.2624 77.278 48.2122 79.1353 48.2122 79.1353L47.6836 81.1141Z" fill="#161619"/>
<path d="M50.8765 79.5925C51.0479 79.3925 52.0123 77.378 51.8623 76.7066C51.6551 76.6994 51.3337 76.7637 51.1908 77.228C50.9693 77.9424 50.2479 79.5997 50.105 79.814C49.9836 79.9997 49.2763 80.8283 49.4406 81.1926C49.7835 81.1784 50.0835 81.0998 50.1764 80.8855C50.405 80.2926 50.6836 79.814 50.8765 79.5925Z" fill="#1D1D21"/>
<path d="M31.2174 52.476C31.2174 52.476 29.8958 52.6403 29.953 54.1404C30.003 55.6405 31.3888 62.1197 32.9818 63.4055C34.5748 64.6913 34.5391 61.6268 34.5391 61.6268C34.5391 61.6268 33.5604 52.1402 31.2174 52.476Z" fill="#F6BB43"/>
<path d="M33.0605 64.7695C33.0605 64.7695 31.9032 68.1984 31.3032 68.9485C31.3032 68.9485 38.2609 72.9416 39.8396 74.2989C41.1469 75.4204 48.5475 78.8207 48.5475 78.8207C48.5475 78.8207 48.0474 79.5708 47.7974 81.1281C47.7974 81.1281 41.1826 81.0352 37.0179 77.2134C37.0179 77.2134 23.0453 74.3061 24.2383 67.0912C24.2454 67.0912 28.8672 68.927 33.0605 64.7695Z" fill="#1D2833"/>
<path d="M27.4457 52.9825C27.4457 52.9825 23.6669 55.1041 23.5811 55.3613C23.4954 55.6184 23.0597 55.8184 24.3026 58.7616C24.3026 58.7616 25.4741 61.3546 24.6384 64.5478C24.1526 66.3979 24.2312 67.0194 24.2312 67.0194C24.2312 67.0194 25.6956 70.1625 29.8745 68.6267C30.7174 68.3195 33.0677 66.0693 33.4963 65.1478C33.4963 65.1478 32.1676 63.512 32.689 60.326C33.2105 57.14 33.5034 52.9968 31.6961 52.4467C31.7032 52.461 31.2389 51.9038 27.4457 52.9825Z" fill="#F6BB43"/>
<path d="M28.6172 51.9614C28.6172 51.9614 31.0531 53.2401 29.9673 55.076L31.1103 55.7046C31.1103 55.7117 32.2318 52.4972 28.6172 51.9614Z" fill="#FEFFFF"/>
<path d="M27.0605 50.668C27.0605 50.668 28.0821 52.2252 27.2748 53.2682C26.8248 53.854 27.8892 55.2469 29.7108 55.1326C29.7108 55.1326 30.5251 54.9326 30.4465 54.6397C30.2608 53.9682 30.5251 53.5896 30.818 53.0753C31.0966 52.5681 27.0605 50.668 27.0605 50.668Z" fill="#EFB185"/>
<path d="M27.2745 53.2756C27.2245 53.347 27.1888 53.4256 27.1816 53.5185C27.8674 52.8256 29.1747 52.7756 29.1747 52.7756L27.4388 50.8611C27.3745 50.8254 27.3174 50.804 27.2674 50.7754L27.2173 50.9468C27.4602 51.4326 27.8745 52.497 27.2745 53.2756Z" fill="#DD9569"/>
<path d="M30.4393 54.6466C30.2679 53.5822 30.5179 53.5965 30.8108 53.0821C30.8893 52.9393 30.6393 52.6964 30.2393 52.4106C30.1393 52.4821 30.0393 52.5964 29.9392 52.7464C29.232 53.8322 29.2392 54.6823 29.3249 55.1395C29.4464 55.1466 29.5749 55.1609 29.7035 55.1395C29.925 55.1037 30.4893 54.9752 30.4393 54.6466Z" fill="#F2B78F"/>
<path d="M26.6817 49.8034C26.6817 49.8034 27.1246 51.8607 28.539 52.7893C29.7891 53.618 31.2535 54.1609 31.5178 52.6608C31.7321 51.4678 32.3179 48.439 31.2678 47.8318C29.9106 47.046 29.4176 46.0816 27.8532 46.6603C27.8532 46.6603 26.0602 47.4889 26.6817 49.8034Z" fill="#EFB185"/>
<path d="M26.6815 49.804C26.6815 49.804 26.8458 51.5685 28.5317 52.8186C28.896 53.0829 29.3603 53.2972 29.7175 53.4472C29.0603 52.9614 28.9889 52.8114 28.4817 52.2185C27.9673 51.6256 29.2389 51.8542 28.3745 50.3326C28.0816 49.8112 29.5318 50.4827 29.8532 50.4755C31.782 50.4255 31.6391 49.3254 31.6748 48.854C31.6391 48.6468 31.5819 48.4539 31.5176 48.2825L31.3319 47.9324C31.3105 47.9039 31.2891 47.8682 31.2676 47.8396C31.0605 47.5753 30.8462 47.3467 30.639 47.1538C29.8104 47.1752 27.4602 47.2252 27.4173 47.2324C27.3816 47.2395 26.9816 47.7896 26.6101 48.311C26.5244 48.7111 26.5244 49.2111 26.6815 49.804Z" fill="#E6A376"/>
<path d="M27.5247 51.7897C27.5247 51.7897 25.9602 50.3539 26.5031 48.2965C26.5031 48.2965 26.796 46.6393 28.6319 46.4249C29.5106 46.3178 31.1964 46.3749 31.8679 48.1465C32.0751 48.7037 31.9322 49.911 29.7606 49.3466C29.4463 49.268 28.6248 49.1538 28.3319 49.4181C28.039 49.6824 28.0104 50.1753 28.1461 50.5967C28.2676 50.9682 27.9461 51.0039 27.8961 50.9253C27.8533 50.8468 27.4318 49.7967 27.0389 50.2038C26.7032 50.5824 27.4889 51.7183 27.5247 51.7897Z" fill="#341C09"/>
<path d="M27.5253 51.7895C27.4895 51.7181 26.6966 50.5823 27.0538 50.2108C27.4467 49.8036 27.861 50.8537 27.911 50.9323C27.9539 51.0109 28.2825 50.9751 28.161 50.6037C28.0182 50.1822 28.0539 49.6893 28.3468 49.425C28.6111 49.1821 29.3326 49.3036 29.7755 49.3536C29.4183 49.125 28.6968 49.0393 28.4396 48.4392C28.0967 47.6391 27.611 47.2605 27.161 47.1177C26.6323 47.6534 26.518 48.3035 26.518 48.3035C25.968 50.3608 27.5253 51.7895 27.5253 51.7895Z" fill="#221101"/>
<path d="M27.5243 52.7686C27.5243 52.7686 27.8887 54.6044 29.9674 55.0759L29.3745 56.526C29.3745 56.526 25.6527 54.6616 27.5243 52.7686Z" fill="#FEFFFF"/>
<path d="M31.8753 48.1464C31.8753 48.1464 32.1968 50.1251 29.6751 49.4108C29.6751 49.4108 28.4179 49.075 27.9107 47.9035C27.8035 47.6535 27.5106 47.2392 27.082 47.1963C27.082 47.1963 27.7535 46.2462 29.4894 46.3677C30.3037 46.4248 31.1538 47.2177 31.361 47.3463C31.5681 47.4749 31.2324 48.3035 31.8753 48.1464Z" fill="#341C09"/>
<path d="M40.1973 62.8058C40.1973 62.8058 42.0117 63.1486 43.2547 62.6272C44.4976 62.1128 44.1976 62.07 44.0976 61.8842C43.8904 61.4771 42.2546 61.5914 41.9474 61.5056C41.6474 61.4271 42.1974 61.1842 42.326 60.977C42.4474 60.7699 42.7332 60.527 42.6332 60.4556C42.5332 60.3913 42.2832 60.3198 41.826 60.6841C41.3616 61.0485 40.2044 61.5485 40.2044 61.5485L40.1973 62.8058Z" fill="#EFB185"/>
<path d="M40.4607 61.3839C40.4607 61.3839 40.3607 61.7268 40.3607 62.1911C40.3678 62.7483 40.625 63.1269 40.625 63.1269C40.625 63.1269 34.6959 64.3199 33.1886 63.5555C33.1886 63.5555 31.7314 61.3125 33.9601 60.7124L40.4607 61.3839Z" fill="#F6BB43"/>
<path d="M29.1399 68.9565L29.1113 69.2566L33.526 72.3925L33.5546 72.0854L29.1399 68.9565Z" fill="#B4B9BC"/>
<path d="M33.554 72.0842L33.5254 72.3914L41.7475 68.591L41.7761 68.291L33.554 72.0842Z" fill="#7D8183"/>
<path d="M29.1406 68.9558L33.5553 72.0846L41.7774 68.2914L37.3628 65.1626L29.1406 68.9558Z" fill="#E3E5E5"/>
<path d="M34.8617 66.8716L34.533 66.5645L33.1758 72.0721L33.5044 72.3792L34.8617 66.8716Z" fill="#BDBBBB"/>
<path d="M43.4554 62.8996L43.1268 62.5996L34.5332 66.5642L34.8618 66.8714L43.4554 62.8996Z" fill="#D2D0D0"/>
<path d="M34.8612 66.8712L33.5039 72.3788L42.0904 68.407L43.4548 62.8994L34.8612 66.8712Z" fill="#D5DFE6"/>
<path d="M34.8613 66.8712L42.0905 68.407L43.4549 62.8994L34.8613 66.8712Z" fill="#E9F0F4"/>
<path d="M31.6523 68.0993C31.6523 68.0993 33.6597 69.7566 35.617 69.3637C35.617 69.3637 35.617 68.8565 34.7455 68.6637C33.874 68.4708 33.5382 67.8065 33.5454 67.7064C33.5525 67.6064 34.2383 67.5421 34.5383 67.535C34.8455 67.5207 35.2098 67.0992 34.4669 67.0564C33.724 67.0064 32.4453 66.7278 31.7238 66.8849C31.7238 66.8849 31.0023 67.6564 31.6523 68.0993Z" fill="#EFB185"/>
<path d="M24.8458 54.9679C24.8458 54.9679 23.5386 54.7251 23.1386 56.1752C22.7385 57.6253 22.1242 64.2187 23.26 65.9189C24.3886 67.6261 31.7821 68.5191 31.7821 68.5191C31.2535 67.3976 32.0036 66.4689 32.0036 66.4689L25.6245 63.8044C25.6245 63.8044 27.1817 55.3537 24.8458 54.9679Z" fill="#F6BB43"/>
<path d="M25.6241 63.8045L32.0032 66.469C32.0032 66.469 31.7889 66.7404 31.6675 67.169C30.2174 66.7047 24.8669 65.9118 24.9884 64.7617C25.6313 58.8183 25.6884 55.7109 25.6884 55.7109L25.9242 56.4181C26.5171 58.9255 25.6241 63.8045 25.6241 63.8045Z" fill="#FFF6E2"/>
<defs>
<linearGradient id="paint0_linear_506_2812" x1="73.0325" y1="41.4304" x2="73.1573" y2="54.7547" gradientUnits="userSpaceOnUse">
<stop stop-color="#FFDF02"/>
<stop offset="0.1253" stop-color="#F9D402"/>
<stop offset="0.4425" stop-color="#ECBD01"/>
<stop offset="0.7411" stop-color="#E4AF00"/>
<stop offset="1" stop-color="#E1AA00"/>
</linearGradient>
<linearGradient id="paint1_linear_506_2812" x1="42.8254" y1="6.75875" x2="20.7056" y2="57.6053" gradientUnits="userSpaceOnUse">
<stop stop-color="#1A6BB2"/>
<stop offset="1" stop-color="#1B4B92"/>
</linearGradient>
</defs>
</svg>
