<svg width="105" height="77" viewBox="0 0 105 77" fill="none" xmlns="http://www.w3.org/2000/svg">
<g clip-path="url(#clip0_8_2501)">
<path d="M64.9882 61.9073H3.30682C2.6276 61.9066 1.97643 61.6373 1.49616 61.1586C1.01588 60.68 0.745728 60.031 0.744957 59.354V15.2491C0.745728 14.5722 1.01588 13.9232 1.49616 13.4445C1.97643 12.9658 2.6276 12.6966 3.30682 12.6958H64.9882C65.6674 12.6966 66.3186 12.9658 66.7989 13.4445C67.2792 13.9232 67.5493 14.5722 67.5501 15.2491V59.354C67.5493 60.031 67.2792 60.68 66.7989 61.1586C66.3186 61.6373 65.6674 61.9066 64.9882 61.9073ZM3.30682 14.0396C2.98509 14.04 2.67664 14.1676 2.44915 14.3943C2.22165 14.621 2.09368 14.9285 2.09331 15.2491V59.354C2.09367 59.6747 2.22164 59.9821 2.44914 60.2088C2.67663 60.4356 2.98508 60.5631 3.30682 60.5635H64.9882C65.31 60.5631 65.6184 60.4356 65.8459 60.2088C66.0734 59.9821 66.2014 59.6747 66.2017 59.354V15.2491C66.2014 14.9285 66.0734 14.621 65.8459 14.3943C65.6184 14.1676 65.31 14.04 64.9882 14.0396H3.30682Z" fill="#E6E6E6"/>
<path d="M32.8366 77C35.5775 77 37.7994 74.7855 37.7994 72.0538C37.7994 69.3221 35.5775 67.1077 32.8366 67.1077C30.0958 67.1077 27.8739 69.3221 27.8739 72.0538C27.8739 74.7855 30.0958 77 32.8366 77Z" fill="#E6E6E6"/>
<path d="M32.8366 75.8459C34.9379 75.8459 36.6414 74.1481 36.6414 72.0538C36.6414 69.9595 34.9379 68.2617 32.8366 68.2617C30.7353 68.2617 29.0318 69.9595 29.0318 72.0538C29.0318 74.1481 30.7353 75.8459 32.8366 75.8459Z" fill="white"/>
<path d="M34.7427 74.1249C34.7199 74.1249 34.6974 74.1205 34.6764 74.1118C34.6553 74.1031 34.6362 74.0904 34.6202 74.0743L30.8076 70.2744C30.7765 70.2417 30.7594 70.1983 30.76 70.1533C30.7606 70.1082 30.7788 70.0652 30.8107 70.0334C30.8427 70.0015 30.8858 69.9834 30.931 69.9828C30.9762 69.9822 31.0198 69.9992 31.0526 70.0302L34.8652 73.8301C34.8894 73.8543 34.9059 73.885 34.9126 73.9185C34.9193 73.952 34.9158 73.9867 34.9027 74.0183C34.8896 74.0498 34.8674 74.0768 34.8389 74.0958C34.8104 74.1148 34.7769 74.1249 34.7427 74.1249Z" fill="#797675"/>
<path d="M34.9884 72.4194C35.0243 72.3633 35.0432 72.2981 35.043 72.2316C35.0428 72.1651 35.0235 72.1 34.9873 72.0441C34.7094 71.6111 34.343 71.2414 33.9121 70.9589C33.4754 70.6694 32.9641 70.5117 32.4396 70.5048C32.1751 70.5051 31.9124 70.5481 31.6617 70.632C31.6547 70.6344 31.6484 70.6384 31.6434 70.6439C31.6384 70.6493 31.6349 70.6559 31.6332 70.6631C31.6315 70.6703 31.6317 70.6778 31.6337 70.6849C31.6357 70.692 31.6396 70.6984 31.6448 70.7036L32.1565 71.2136C32.1619 71.2189 32.1685 71.2227 32.1758 71.2246C32.1831 71.2266 32.1908 71.2267 32.1981 71.2248C32.466 71.1598 32.7489 71.2036 32.9844 71.3464C33.22 71.4892 33.389 71.7194 33.4543 71.9864L33.4555 71.9915C33.544 72.4044 33.7458 72.7846 34.0386 73.0897L34.2016 73.2523C34.2093 73.26 34.2196 73.2645 34.2305 73.2649C34.2413 73.2654 34.2519 73.2618 34.2603 73.2548C34.5435 73.0142 34.7889 72.7326 34.9884 72.4194Z" fill="#797675"/>
<path d="M33.2133 72.8543C33.0767 72.8543 32.9415 72.8275 32.8154 72.7755C32.6892 72.7234 32.5746 72.6471 32.478 72.5509C32.3815 72.4546 32.3049 72.3404 32.2526 72.2147C32.2003 72.0889 32.1734 71.9542 32.1734 71.8181C32.1734 71.8172 32.1734 71.8163 32.1734 71.8154C32.1757 71.7248 32.1599 71.6347 32.127 71.5503C32.0941 71.4659 32.0447 71.3888 31.9817 71.3235L31.4674 70.8107C31.4597 70.803 31.4493 70.7985 31.4384 70.7981C31.4275 70.7977 31.4168 70.8014 31.4085 70.8085C31.1304 71.0487 30.8842 71.3233 30.6758 71.6256C30.6367 71.6817 30.6151 71.7481 30.6138 71.8164C30.6126 71.8847 30.6318 71.9519 30.6689 72.0093C30.9423 72.4427 31.3052 72.8131 31.7334 73.0958C32.1708 73.3865 32.6841 73.5427 33.2098 73.5452C33.477 73.5445 33.7424 73.5024 33.9966 73.4205C34.0037 73.4183 34.0101 73.4143 34.0151 73.4088C34.0202 73.4034 34.0238 73.3968 34.0255 73.3896C34.0273 73.3824 34.0271 73.3748 34.0251 73.3677C34.0231 73.3606 34.0193 73.3541 34.014 73.3489L33.4999 72.8365C33.4945 72.8312 33.4879 72.8274 33.4807 72.8254C33.4734 72.8235 33.4658 72.8234 33.4585 72.8252C33.3782 72.8446 33.2959 72.8544 33.2133 72.8543Z" fill="#797675"/>
<path d="M14.0074 77C16.7482 77 18.9701 74.7855 18.9701 72.0538C18.9701 69.3221 16.7482 67.1077 14.0074 67.1077C11.2665 67.1077 9.0446 69.3221 9.0446 72.0538C9.0446 74.7855 11.2665 77 14.0074 77Z" fill="#E6E6E6"/>
<path d="M14.0074 75.8459C16.1087 75.8459 17.8121 74.1481 17.8121 72.0538C17.8121 69.9595 16.1087 68.2617 14.0074 68.2617C11.906 68.2617 10.2026 69.9595 10.2026 72.0538C10.2026 74.1481 11.906 75.8459 14.0074 75.8459Z" fill="white"/>
<path d="M15.469 74.4718C15.2576 74.4718 14.9606 74.3956 14.5159 74.148C13.9631 73.8535 13.4584 73.4773 13.0189 73.032C12.564 72.6001 12.1841 72.0961 11.8947 71.5404C11.4957 70.8171 11.5637 70.438 11.6397 70.276C11.7275 70.0988 11.8655 69.9512 12.0367 69.8515C12.1348 69.7874 12.2387 69.7325 12.3469 69.6874C12.3577 69.6828 12.3678 69.6784 12.3768 69.6744C12.4126 69.6541 12.4523 69.6418 12.4933 69.638C12.5343 69.6343 12.5756 69.6393 12.6145 69.6528C12.701 69.6942 12.7779 69.753 12.8405 69.8255C13.0657 70.0775 13.2558 70.3586 13.4054 70.6614C13.467 70.7661 13.5048 70.8829 13.5162 71.0037C13.5073 71.1232 13.4587 71.2364 13.3781 71.3255C13.364 71.3448 13.3499 71.3632 13.3362 71.3812C13.2538 71.4891 13.2357 71.5203 13.2476 71.576C13.2718 71.688 13.6378 71.7853 13.9338 72.0796C14.2298 72.374 14.3687 72.7782 14.4814 72.8021C14.5397 72.8146 14.5716 72.7958 14.6834 72.7107C14.6994 72.6985 14.7159 72.6859 14.7331 72.6733C14.8227 72.5891 14.9382 72.5376 15.0609 72.5271H15.0615C15.1845 72.5397 15.3027 72.581 15.4066 72.6478C15.7069 72.7995 15.9875 72.9872 16.2421 73.2067C16.315 73.2689 16.3742 73.3454 16.416 73.4314C16.4294 73.4702 16.4344 73.5115 16.4307 73.5524C16.4269 73.5934 16.4145 73.6331 16.3943 73.6689C16.3903 73.6778 16.3859 73.6877 16.3812 73.6986C16.3356 73.8062 16.2802 73.9095 16.2156 74.0071C16.1153 74.1775 15.967 74.3148 15.7891 74.402C15.6891 74.4491 15.5796 74.473 15.469 74.4718Z" fill="#797675"/>
<path d="M51.8118 77C54.5527 77 56.7746 74.7855 56.7746 72.0538C56.7746 69.3221 54.5527 67.1077 51.8118 67.1077C49.071 67.1077 46.8491 69.3221 46.8491 72.0538C46.8491 74.7855 49.071 77 51.8118 77Z" fill="#E6E6E6"/>
<path d="M51.8118 75.8459C53.9132 75.8459 55.6166 74.1481 55.6166 72.0538C55.6166 69.9595 53.9132 68.2617 51.8118 68.2617C49.7105 68.2617 48.0071 69.9595 48.0071 72.0538C48.0071 74.1481 49.7105 75.8459 51.8118 75.8459Z" fill="white"/>
<path d="M53.1982 71.3457C53.1523 71.3457 53.1082 71.3639 53.0757 71.3963C53.0432 71.4287 53.0249 71.4726 53.0249 71.5184V71.8639C53.0249 72.5316 52.4818 72.7275 51.8118 72.7275C51.1419 72.7275 50.5987 72.5316 50.5987 71.8639V71.5184C50.5987 71.4726 50.5805 71.4287 50.548 71.3963C50.5155 71.3639 50.4714 71.3457 50.4254 71.3457C50.3795 71.3457 50.3354 71.3639 50.3029 71.3963C50.2704 71.4287 50.2521 71.4726 50.2521 71.5184V71.8639C50.2526 72.246 50.3942 72.6146 50.6499 72.8994C50.9056 73.1842 51.2575 73.3653 51.6385 73.408V74.1093C51.6385 74.1551 51.6568 74.199 51.6893 74.2314C51.7218 74.2638 51.7659 74.282 51.8118 74.282C51.8578 74.282 51.9019 74.2638 51.9344 74.2314C51.9669 74.199 51.9851 74.1551 51.9851 74.1093V73.408C52.3662 73.3652 52.7181 73.1842 52.9737 72.8994C53.2294 72.6146 53.371 72.246 53.3715 71.8639V71.5184C53.3715 71.4726 53.3533 71.4287 53.3208 71.3963C53.2883 71.3639 53.2442 71.3457 53.1982 71.3457Z" fill="#797675"/>
<path d="M51.8118 72.2387C51.5993 72.2428 51.389 72.1949 51.1993 72.0991C51.1311 72.0721 51.0716 72.0272 51.0268 71.9692C50.9821 71.9112 50.954 71.8422 50.9453 71.7696V71.1268C50.9435 70.8719 51.3284 70.6645 51.8051 70.6635C51.8073 70.6635 51.8096 70.6635 51.8118 70.6635C52.2853 70.6607 52.6732 70.8637 52.6783 71.1169C52.6784 71.1202 52.6784 71.1235 52.6783 71.1268V71.7696C52.6807 72.0269 52.2931 72.2368 51.8118 72.2387Z" fill="#797675"/>
<path d="M64.9882 61.3026H3.30682C2.78847 61.302 2.29153 61.0965 1.92501 60.7312C1.55849 60.3659 1.35231 59.8706 1.35172 59.354V15.2491C1.35231 14.7325 1.55849 14.2372 1.92501 13.8719C2.29153 13.5066 2.78847 13.3011 3.30682 13.3005H64.9882C65.5066 13.3011 66.0035 13.5066 66.3701 13.8719C66.7366 14.2372 66.9427 14.7325 66.9433 15.2491V59.354C66.9427 59.8706 66.7366 60.3659 66.3701 60.7312C66.0035 61.0965 65.5066 61.302 64.9882 61.3026Z" fill="white"/>
<path d="M33.8456 40.6338C37.4514 40.6338 40.3744 37.7205 40.3744 34.1268C40.3744 30.533 37.4514 27.6198 33.8456 27.6198C30.2398 27.6198 27.3168 30.533 27.3168 34.1268C27.3168 37.7205 30.2398 40.6338 33.8456 40.6338Z" fill="#FFB8B8"/>
<path d="M26.5625 27.867C26.6118 27.1197 27.1077 26.3551 28.6829 25.9555C28.6829 25.9555 31.3864 22.51 35.0601 24.3169C35.0601 24.3169 36.8411 24.0115 38.1617 25.8532C38.1617 25.8532 39.4711 25.0835 40.0235 26.4477C40.0235 26.4477 41.5592 29.2304 40.9938 32.0687C40.4285 34.907 40.1391 35.2612 40.1391 35.2612C40.1391 35.2612 40.8597 29.3902 36.7091 29.7973C32.5584 30.2044 29.2168 28.7497 28.2768 31.9348C27.4963 34.5797 27.5946 35.9533 27.5946 35.9533C27.5946 35.9533 24.9846 33.3148 25.872 31.2372C26.3259 30.1746 26.4864 29.0194 26.5625 27.867Z" fill="#2F2E41"/>
<path d="M16.0911 61.2353H52.2039C51.9625 58.4899 51.8048 56.4472 51.8048 55.7565C51.8048 52.71 49.3036 49.3853 49.3036 49.3853L48.4083 48.8921L40.9317 46.5673L38.9968 44.0624C38.7942 43.7993 38.5332 43.5867 38.2342 43.4412C37.9352 43.2957 37.6064 43.2213 37.2737 43.2238L31.1616 43.2695C30.6237 43.2736 30.1068 43.4778 29.7121 43.842L25.9273 47.3414L20.3762 49.9833L20.3667 49.9739L20.3088 50.0169L19.4849 50.6082L18.955 50.9899C18.955 50.9899 17.5649 52.6522 16.4538 57.6379C16.2867 58.3877 16.1693 59.6429 16.0911 61.2353Z" fill="#797675"/>
<path d="M104.848 5.57356H0.151955C0.111345 5.57267 0.0726971 5.55597 0.0442898 5.52704C0.0158825 5.4981 -2.57492e-05 5.45922 -2.57492e-05 5.41874C-2.57492e-05 5.37825 0.0158825 5.33938 0.0442898 5.31044C0.0726971 5.2815 0.111345 5.2648 0.151955 5.26392H104.848C104.889 5.2648 104.927 5.2815 104.956 5.31044C104.984 5.33938 105 5.37825 105 5.41874C105 5.45922 104.984 5.4981 104.956 5.52704C104.927 5.55597 104.889 5.57267 104.848 5.57356Z" fill="#CACACA"/>
<path d="M3.57211 3.40607C4.49525 3.40607 5.2436 2.64359 5.2436 1.70303C5.2436 0.762474 4.49525 0 3.57211 0C2.64897 0 1.90062 0.762474 1.90062 1.70303C1.90062 2.64359 2.64897 3.40607 3.57211 3.40607Z" fill="#3F3D56"/>
<path d="M9.34635 3.40607C10.2695 3.40607 11.0178 2.64359 11.0178 1.70303C11.0178 0.762474 10.2695 0 9.34635 0C8.42321 0 7.67486 0.762474 7.67486 1.70303C7.67486 2.64359 8.42321 3.40607 9.34635 3.40607Z" fill="#3F3D56"/>
<path d="M15.1206 3.40607C16.0437 3.40607 16.7921 2.64359 16.7921 1.70303C16.7921 0.762474 16.0437 0 15.1206 0C14.1975 0 13.4491 0.762474 13.4491 1.70303C13.4491 2.64359 14.1975 3.40607 15.1206 3.40607Z" fill="#3F3D56"/>
<path d="M101.388 1.04165H97.2857C97.2044 1.03987 97.1272 1.00647 97.0703 0.94859C97.0135 0.890714 96.9817 0.812969 96.9817 0.732005C96.9817 0.651041 97.0135 0.573295 97.0703 0.51542C97.1272 0.457544 97.2044 0.424141 97.2857 0.422363H101.388C101.47 0.424141 101.547 0.457544 101.604 0.51542C101.661 0.573295 101.692 0.651041 101.692 0.732005C101.692 0.812969 101.661 0.890714 101.604 0.94859C101.547 1.00647 101.47 1.03987 101.388 1.04165Z" fill="#3F3D56"/>
<path d="M101.388 2.2029H97.2857C97.2044 2.20112 97.1272 2.16772 97.0703 2.10984C97.0135 2.05197 96.9817 1.97422 96.9817 1.89326C96.9817 1.8123 97.0135 1.73455 97.0703 1.67667C97.1272 1.6188 97.2044 1.5854 97.2857 1.58362H101.388C101.47 1.5854 101.547 1.6188 101.604 1.67667C101.661 1.73455 101.692 1.8123 101.692 1.89326C101.692 1.97422 101.661 2.05197 101.604 2.10984C101.547 2.16772 101.47 2.20112 101.388 2.2029Z" fill="#3F3D56"/>
<path d="M101.388 3.36404H97.2857C97.2044 3.36226 97.1272 3.32885 97.0703 3.27098C97.0135 3.2131 96.9817 3.13536 96.9817 3.05439C96.9817 2.97343 97.0135 2.89568 97.0703 2.83781C97.1272 2.77993 97.2044 2.74653 97.2857 2.74475H101.388C101.47 2.74653 101.547 2.77993 101.604 2.83781C101.661 2.89568 101.692 2.97343 101.692 3.05439C101.692 3.13536 101.661 3.2131 101.604 3.27098C101.547 3.32885 101.47 3.36226 101.388 3.36404Z" fill="#3F3D56"/>
<path d="M98.528 64.0928H77.9446C77.2654 64.0921 76.6142 63.8228 76.1339 63.3442C75.6536 62.8655 75.3835 62.2165 75.3827 61.5395V47.4889C75.3835 46.8119 75.6536 46.1629 76.1339 45.6842C76.6142 45.2056 77.2654 44.9363 77.9446 44.9355H98.528C99.2072 44.9363 99.8583 45.2056 100.339 45.6842C100.819 46.1629 101.089 46.8119 101.09 47.4889V61.5395C101.089 62.2165 100.819 62.8655 100.339 63.3442C99.8583 63.8228 99.2072 64.0921 98.528 64.0928ZM77.9446 46.2794C77.6228 46.2798 77.3144 46.4073 77.0869 46.634C76.8594 46.8608 76.7314 47.1682 76.7311 47.4889V61.5395C76.7314 61.8602 76.8594 62.1676 77.0869 62.3944C77.3144 62.6211 77.6228 62.7486 77.9446 62.749H98.528C98.8497 62.7486 99.1581 62.6211 99.3856 62.3944C99.6131 62.1676 99.7411 61.8602 99.7415 61.5395V47.4889C99.7411 47.1682 99.6131 46.8608 99.3856 46.634C99.1581 46.4073 98.8497 46.2798 98.528 46.2794H77.9446Z" fill="#E6E6E6"/>
<path d="M98.528 63.4882H77.9445C77.4262 63.4876 76.9293 63.2821 76.5627 62.9168C76.1962 62.5515 75.99 62.0562 75.9894 61.5396V47.4889C75.99 46.9722 76.1962 46.477 76.5627 46.1117C76.9293 45.7464 77.4262 45.5409 77.9445 45.5403H98.528C99.0463 45.5409 99.5432 45.7464 99.9098 46.1117C100.276 46.477 100.482 46.9722 100.483 47.4889V61.5396C100.482 62.0562 100.276 62.5515 99.9098 62.9168C99.5432 63.2821 99.0463 63.4876 98.528 63.4882Z" fill="white"/>
<path d="M90.1664 50.1141C90.2854 49.3742 89.9487 48.8295 89.056 48.522C88.168 47.754 86.8556 47.5698 86.0678 48.7998C85.7498 48.781 85.4368 48.8852 85.194 49.0908C84.9512 49.2964 84.7975 49.5875 84.7648 49.9034C84.0413 50.7416 84.8447 53.8181 85.0828 54.9903L86.3529 54.9779L88.8884 54.9529L90.1664 54.9404L90.6535 52.1917C90.9495 51.3925 90.8289 50.6916 90.1664 50.1141Z" fill="#E6E6E6"/>
<path d="M94.7787 61.6865C95.1104 61.4753 95.4618 61.2965 95.8279 61.1526L92.2164 56.8789L89.8297 56.2701C89.8101 56.2592 89.7907 56.248 89.7716 56.2365L85.7452 56.3903L85.728 56.3732L83.1893 57.6109L79.5778 61.7723C79.9342 61.9115 80.2766 62.084 80.6005 62.2874L80.2278 63.7H82.8119L83.4994 62.7042H83.5339C83.5339 62.687 83.5354 62.6698 83.5354 62.6527L84.0178 61.9534C84.0287 62.5184 84.0131 63.1006 83.9739 63.7H92.0113C91.9988 63.2021 91.9956 62.7073 91.9956 62.2156L92.8946 63.5158C92.9619 63.4175 93.034 63.3254 93.106 63.2318L93.283 63.7H95.3409L94.8475 61.8301C94.8336 61.7784 94.8102 61.7297 94.7787 61.6865Z" fill="#E6E6E6"/>
<path d="M98.528 31.7117H77.9446C77.2654 31.711 76.6142 31.4417 76.1339 30.9631C75.6536 30.4844 75.3835 29.8354 75.3827 29.1584V15.1077C75.3835 14.4308 75.6536 13.7818 76.1339 13.3031C76.6142 12.8245 77.2654 12.5552 77.9446 12.5544H98.528C99.2072 12.5552 99.8583 12.8245 100.339 13.3031C100.819 13.7818 101.089 14.4308 101.09 15.1077V29.1584C101.089 29.8354 100.819 30.4844 100.339 30.9631C99.8583 31.4417 99.2072 31.711 98.528 31.7117ZM77.9446 13.8983C77.6228 13.8987 77.3144 14.0262 77.0869 14.2529C76.8594 14.4797 76.7314 14.7871 76.7311 15.1077V29.1584C76.7314 29.4791 76.8594 29.7865 77.0869 30.0132C77.3144 30.24 77.6228 30.3675 77.9446 30.3679H98.528C98.8497 30.3675 99.1581 30.24 99.3856 30.0132C99.6131 29.7865 99.7411 29.4791 99.7415 29.1584V15.1077C99.7411 14.7871 99.6131 14.4797 99.3856 14.2529C99.1581 14.0262 98.8497 13.8987 98.528 13.8983H77.9446Z" fill="#E6E6E6"/>
<path d="M98.528 31.107H77.9445C77.4262 31.1064 76.9293 30.9009 76.5627 30.5356C76.1962 30.1703 75.99 29.6751 75.9894 29.1584V15.1077C75.99 14.5911 76.1962 14.0959 76.5627 13.7306C76.9293 13.3653 77.4262 13.1598 77.9445 13.1592H98.528C99.0463 13.1598 99.5432 13.3653 99.9098 13.7306C100.276 14.0959 100.482 14.5911 100.483 15.1077V29.1584C100.482 29.6751 100.276 30.1703 99.9098 30.5356C99.5432 30.9009 99.0463 31.1064 98.528 31.107Z" fill="white"/>
<path d="M85.6364 20.0869C85.6981 20.7115 85.9762 21.2952 86.4229 21.7376C86.8696 22.1799 87.457 22.4533 88.0841 22.5108C88.7111 22.5682 89.3387 22.4061 89.8588 22.0524C90.379 21.6986 90.7592 21.1752 90.9341 20.5723C91.0218 20.4813 91.9939 19.4459 91.6421 18.6222C91.4683 18.1753 91.3714 17.7024 91.3555 17.2234C91.335 16.9133 91.1292 16.5959 90.4754 16.4301C90.4754 16.4301 89.3534 15.0001 87.8286 15.75C87.8286 15.75 87.0895 15.6232 86.5413 16.3876C86.5413 16.3876 85.9979 16.0682 85.7686 16.6343C85.7686 16.6343 85.1313 17.7893 85.3659 18.9673C85.4348 19.3453 85.5251 19.7191 85.6364 20.0869Z" fill="#E6E6E6"/>
<path d="M95.551 29.8588C95.0898 27.7895 94.5129 27.0996 94.5129 27.0996L94.2929 26.9412L93.951 26.6958L93.927 26.6779L93.923 26.6818L91.6191 25.5853L90.0483 24.1329C89.8844 23.9818 89.6699 23.8971 89.4467 23.8953L86.9099 23.8764C86.7718 23.8753 86.6354 23.9062 86.5113 23.9666C86.3872 24.027 86.2788 24.1152 86.1947 24.2244L85.3917 25.264L82.2886 26.2289L81.917 26.4336C81.917 26.4336 80.8789 27.8135 80.8789 29.0779C80.8789 29.3646 80.8135 30.2124 80.7133 31.3519H95.7015C95.6882 30.8512 95.6379 30.3521 95.551 29.8588Z" fill="#E6E6E6"/>
<path d="M85.6798 50.6866H58.769C57.881 50.6856 57.0297 50.3336 56.4018 49.7078C55.7739 49.082 55.4207 48.2335 55.4197 47.3484V28.9786C55.4207 28.0935 55.7739 27.245 56.4018 26.6192C57.0297 25.9934 57.881 25.6414 58.769 25.6404H85.6798C86.5678 25.6414 87.4191 25.9934 88.047 26.6192C88.6749 27.245 89.0281 28.0935 89.0291 28.9786V47.3484C89.0281 48.2335 88.6749 49.082 88.047 49.7078C87.4191 50.3336 86.5678 50.6856 85.6798 50.6866ZM58.769 27.3973C58.3484 27.3978 57.9451 27.5646 57.6477 27.861C57.3503 28.1574 57.183 28.5593 57.1825 28.9786V47.3484C57.183 47.7677 57.3503 48.1696 57.6477 48.466C57.9451 48.7625 58.3484 48.9292 58.769 48.9297H85.6798C86.1004 48.9292 86.5036 48.7625 86.8011 48.466C87.0985 48.1696 87.2658 47.7677 87.2663 47.3484V28.9786C87.2658 28.5593 87.0985 28.1574 86.8011 27.861C86.5037 27.5646 86.1004 27.3978 85.6798 27.3973H58.769Z" fill="#E6E6E6"/>
<path d="M85.6794 26.4308H58.7691C58.0913 26.4317 57.4415 26.7005 56.9622 27.1782C56.4829 27.6559 56.2132 28.3035 56.2123 28.9791V47.349C56.2133 48.0244 56.483 48.6719 56.9623 49.1493C57.4417 49.6268 58.0914 49.8953 58.7691 49.8959H85.6794C86.3571 49.8953 87.0069 49.6268 87.4862 49.1493C87.9656 48.6719 88.2353 48.0244 88.2363 47.349V28.9791C88.2354 28.3035 87.9657 27.6559 87.4864 27.1782C87.0071 26.7005 86.3573 26.4317 85.6794 26.4308Z" fill="white"/>
<path d="M76.9585 34.1103C78.1191 34.1103 79.06 33.1726 79.06 32.0159C79.06 30.8591 78.1191 29.9214 76.9585 29.9214C75.7978 29.9214 74.857 30.8591 74.857 32.0159C74.857 33.1726 75.7978 34.1103 76.9585 34.1103Z" fill="#2F2E41"/>
<path d="M72.6413 41.2276C75.5815 41.2276 77.9651 38.852 77.9651 35.9216C77.9651 32.9912 75.5815 30.6156 72.6413 30.6156C69.701 30.6156 67.3175 32.9912 67.3175 35.9216C67.3175 38.852 69.701 41.2276 72.6413 41.2276Z" fill="#2F2E41"/>
<path d="M71.7163 41.5503C74.1056 41.5503 76.0425 39.6199 76.0425 37.2386C76.0425 34.8573 74.1056 32.9269 71.7163 32.9269C69.327 32.9269 67.3901 34.8573 67.3901 37.2386C67.3901 39.6199 69.327 41.5503 71.7163 41.5503Z" fill="#9E616A"/>
<path d="M70.0854 31.8689C70.9258 31.5835 71.8277 31.5284 72.6968 31.7093C73.5659 31.8902 74.3703 32.3005 75.0258 32.8972C75.6813 33.494 76.164 34.2554 76.4233 35.1017C76.6825 35.948 76.7089 36.8482 76.4996 37.7081C74.2276 37.7691 71.875 37.6796 69.7639 36.3487L69.5173 34.9066L68.9023 36.1586C68.1399 36.2882 67.3855 36.3736 66.8029 35.6898C66.9667 34.8223 67.356 34.0129 67.932 33.3424C68.5081 32.6719 69.2506 32.1638 70.0854 31.8689Z" fill="#2F2E41"/>
<path d="M80.108 26.8898C81.6713 26.5563 83.3831 27.2554 84.3371 28.5339C85.2912 29.8124 85.4831 31.5912 84.9114 33.0792C84.3282 34.5971 83.0689 35.7362 81.8915 36.8609C80.714 37.9855 79.5287 39.2412 79.1753 40.8279C78.9207 41.9708 79.1313 43.1677 79.7609 44.156C80.3904 45.1444 81.3876 45.8436 82.5336 46.1003C81.059 46.379 79.5229 46.6561 78.0748 46.2629C76.6266 45.8698 75.3021 44.5917 75.3852 43.0981C75.4451 42.0219 76.1822 41.123 76.8234 40.255C77.8679 38.8406 78.7374 37.3057 79.413 35.6837C79.7353 34.9095 80.0173 34.0829 79.9268 33.2496C79.8451 32.6288 79.5655 32.0507 79.1291 31.6003C78.6928 31.15 78.1227 30.8513 77.5031 30.7483L77.1164 30.2075C77.2454 28.6193 78.5448 27.2233 80.108 26.8898Z" fill="#2F2E41"/>
<path d="M81.6418 49.7773C81.3616 46.9316 79.7784 47.0433 79.7784 47.0433L75.5979 46.2292L73.7668 43.1992L69.1701 43.0205L67.5338 45.8802L64.1714 46.2991L64.1686 46.3465C63.8351 46.3717 62.6331 46.6342 62.3921 49.0791C62.3697 49.3039 62.3389 49.579 62.2996 49.896H81.6544C81.6502 49.8541 81.646 49.815 81.6418 49.7773Z" fill="#2F2E41"/>
</g>
<defs>
<clipPath id="clip0_8_2501">
<rect width="105" height="77" fill="white"/>
</clipPath>
</defs>
</svg>
