<svg width="82" height="86" viewBox="0 0 82 86" fill="none" xmlns="http://www.w3.org/2000/svg">
<path opacity="0.1" d="M77.7421 67.9058C82.956 71.2548 82.9818 76.6838 77.8021 80.0328C72.6311 83.3818 64.2099 83.3818 58.996 80.0328C53.7821 76.6838 53.7564 71.2548 58.936 67.9153C64.1156 64.5663 72.5368 64.5663 77.7421 67.9058Z" fill="black"/>
<g opacity="0.1">
<path d="M0.544922 70.7387L23.1843 85.3751L75.4693 51.7896L52.2811 36.6284L0.544922 70.7387Z" fill="black"/>
</g>
<mask id="mask0_506_3122" style="mask-type:luminance" maskUnits="userSpaceOnUse" x="45" y="39" width="12" height="20">
<path d="M45.8301 57.0767C50.9668 53.7754 55.1174 45.7703 55.1002 39.1963C55.5805 39.5112 56.0607 39.8165 56.5495 40.1313C56.5666 46.7053 52.4161 54.7105 47.2708 58.0118C46.842 57.7255 46.2674 57.3534 45.8301 57.0767Z" fill="white"/>
</mask>
<g mask="url(#mask0_506_3122)">
<path d="M47.2793 58.0126L45.8301 57.0776C46.9192 56.3811 47.9654 55.4651 48.9344 54.3965L50.3837 55.3315C49.4147 56.4001 48.3684 57.3066 47.2793 58.0126Z" fill="#B2C5CC"/>
<path d="M50.3829 55.3321L48.9336 54.397C49.2766 54.0154 49.6196 53.6146 49.9455 53.1948L51.3948 54.1299C51.0689 54.5497 50.7345 54.9504 50.3829 55.3321Z" fill="#ADC0C7"/>
<path d="M51.4043 54.1288L49.9551 53.1938C50.2123 52.8598 50.4696 52.5163 50.7097 52.1729L52.159 53.1079C51.9103 53.4514 51.6616 53.7949 51.4043 54.1288Z" fill="#A9BBC2"/>
<path d="M52.1504 53.0986L50.7012 52.1636C50.9156 51.8583 51.1214 51.5434 51.3186 51.2285L52.7679 52.1636C52.5706 52.488 52.3648 52.7933 52.1504 53.0986Z" fill="#A4B6BD"/>
<path d="M52.7774 52.1727L51.3281 51.2377C51.5168 50.9419 51.6969 50.6461 51.8684 50.3408L53.3177 51.2759C53.1376 51.5812 52.9575 51.877 52.7774 52.1727Z" fill="#A0B1B8"/>
<path d="M53.3165 51.2767L51.8672 50.3417C52.0301 50.0554 52.1931 49.7596 52.3474 49.4639L53.7967 50.3989C53.6423 50.6947 53.4794 50.9905 53.3165 51.2767Z" fill="#9BACB3"/>
<path d="M53.7969 50.3983L52.3477 49.4632C52.502 49.177 52.6478 48.8812 52.785 48.5854L54.2343 49.5205C54.0885 49.8163 53.9427 50.1121 53.7969 50.3983Z" fill="#97A7AD"/>
<path d="M54.2344 49.5301L52.7852 48.5951C52.9224 48.2993 53.0596 48.0131 53.1882 47.7173L54.6375 48.6523C54.5003 48.9386 54.3716 49.2344 54.2344 49.5301Z" fill="#93A2A8"/>
<path d="M54.6368 48.6435L53.1875 47.7084C53.3161 47.4126 53.4362 47.1073 53.5563 46.8115L55.0055 47.7466C54.8855 48.0519 54.7568 48.3477 54.6368 48.6435Z" fill="#8E9DA3"/>
<path d="M54.9981 47.7451L53.5488 46.81C53.6689 46.4952 53.789 46.1899 53.8919 45.875L55.3411 46.81C55.2382 47.1249 55.1267 47.4398 54.9981 47.7451Z" fill="#8A999E"/>
<path d="M55.3399 46.8104L53.8906 45.8754C54.0021 45.551 54.105 45.2265 54.2079 44.8926L55.6572 45.8276C55.5629 46.1616 55.4514 46.486 55.3399 46.8104Z" fill="#859499"/>
<path d="M55.6582 45.8369L54.209 44.9018C54.3119 44.5488 54.4148 44.2053 54.5005 43.8428L55.9498 44.7778C55.8641 45.1308 55.7612 45.4839 55.6582 45.8369Z" fill="#818F94"/>
<path d="M55.9493 44.7793L54.5 43.8443C54.6029 43.4435 54.6887 43.0523 54.7658 42.6611L56.2151 43.5962C56.1379 43.9874 56.0436 44.3881 55.9493 44.7793Z" fill="#7C8A8F"/>
<path d="M56.2051 43.5965L54.7559 42.6614C54.8502 42.1748 54.9188 41.6978 54.9788 41.2207L56.4281 42.1557C56.3766 42.6328 56.2995 43.1099 56.2051 43.5965Z" fill="#78858A"/>
<path d="M56.4305 42.1547L54.9812 41.2197C55.0584 40.5327 55.1013 39.8553 55.1013 39.1969C55.0927 35.9338 54.055 33.6343 52.3828 32.5562L53.8321 33.4912C55.5043 34.5694 56.5419 36.8688 56.5505 40.132C56.5505 40.7903 56.5162 41.4678 56.4305 42.1547Z" fill="#738085"/>
</g>
<path d="M44.177 52.7441L42.7363 51.809L50.2485 42.3154L51.6978 43.2505L44.177 52.7441Z" fill="#8AAFBF"/>
<mask id="mask1_506_3122" style="mask-type:luminance" maskUnits="userSpaceOnUse" x="39" y="57" width="9" height="3">
<path d="M39.2109 57.7901C40.9003 58.8873 43.25 58.7347 45.8312 57.0649L47.2805 58C44.6907 59.6602 42.3496 59.8128 40.6602 58.7251C40.2229 58.4484 39.6397 58.0763 39.2109 57.7901Z" fill="white"/>
</mask>
<g mask="url(#mask1_506_3122)">
<path d="M40.6524 58.7261L39.2031 57.791C39.2203 57.8006 39.2374 57.8101 39.2546 57.8292L40.7038 58.7642C40.6867 58.7451 40.6695 58.7356 40.6524 58.7261Z" fill="#8A999E"/>
<path d="M40.7032 58.7622L39.2539 57.8271C39.4083 57.9226 39.5626 58.0084 39.717 58.0752L41.1663 59.0103C41.0119 58.9339 40.8575 58.8481 40.7032 58.7622Z" fill="#8E9DA3"/>
<path d="M41.1758 59.0103L39.7266 58.0752C39.8895 58.1515 40.0524 58.2183 40.2154 58.266L41.6646 59.2011C41.4931 59.1534 41.3302 59.0866 41.1758 59.0103Z" fill="#93A2A8"/>
<path d="M41.6641 59.2119L40.2148 58.2769C40.3864 58.3341 40.5579 58.3818 40.738 58.4104L42.1872 59.3455C42.0071 59.3073 41.8356 59.2596 41.6641 59.2119Z" fill="#97A7AD"/>
<path d="M42.1895 59.3457L40.7402 58.4106C40.9203 58.4488 41.109 58.4679 41.3062 58.487L42.7555 59.422C42.5582 59.4029 42.3696 59.3743 42.1895 59.3457Z" fill="#9BACB3"/>
<path d="M42.754 59.4126L41.3047 58.4775C41.5019 58.4966 41.7077 58.4966 41.9221 58.4871L43.3714 59.4221C43.157 59.4317 42.9512 59.4317 42.754 59.4126Z" fill="#A0B1B8"/>
<path d="M43.3633 59.422L41.9141 58.487C42.137 58.4774 42.3686 58.4488 42.6087 58.4106L44.0579 59.3457C43.8264 59.3839 43.5949 59.4125 43.3633 59.422Z" fill="#A4B6BD"/>
<path d="M44.0567 59.3456L42.6074 58.4106C42.8733 58.3629 43.1477 58.3056 43.4307 58.2197L44.8799 59.1548C44.5969 59.2311 44.3311 59.2979 44.0567 59.3456Z" fill="#A9BBC2"/>
<path d="M44.8809 59.1459L43.4316 58.2108C43.7918 58.1059 44.152 57.9628 44.5293 57.791L45.9786 58.726C45.6012 58.8978 45.2411 59.0409 44.8809 59.1459Z" fill="#ADC0C7"/>
<path d="M45.9785 58.7251L44.5293 57.7901C44.9581 57.5897 45.3868 57.3512 45.8328 57.0649L47.282 58C46.8361 58.2862 46.3987 58.5248 45.9785 58.7251Z" fill="#B2C5CC"/>
</g>
<mask id="mask2_506_3122" style="mask-type:luminance" maskUnits="userSpaceOnUse" x="52" y="32" width="5" height="9">
<path d="M55.1013 39.1989C55.0927 35.9358 54.055 33.6363 52.3828 32.5581L53.8321 33.4932C55.5043 34.5713 56.5419 36.8708 56.5505 40.1339C56.0703 39.8191 55.5901 39.5042 55.1013 39.1989Z" fill="white"/>
</mask>
<g mask="url(#mask2_506_3122)">
<path d="M56.4305 42.1567L54.9812 41.2217C55.0584 40.5347 55.1013 39.8573 55.1013 39.1989C55.0927 35.9358 54.055 33.6363 52.3828 32.5581L53.8321 33.4932C55.5043 34.5713 56.5419 36.8708 56.5505 40.1339C56.5505 40.7923 56.5162 41.4697 56.4305 42.1567Z" fill="#738085"/>
</g>
<path d="M44.1602 43.4222L42.7109 42.4872L50.2488 42.3154L51.6981 43.2505L44.1602 43.4222Z" fill="#ABBEC5"/>
<path d="M44.1774 52.7428L42.7367 51.8077L42.7109 42.4858L44.1602 43.4209L44.1774 52.7428Z" fill="#778488"/>
<mask id="mask3_506_3122" style="mask-type:luminance" maskUnits="userSpaceOnUse" x="45" y="31" width="9" height="4">
<path d="M52.3918 32.5498L53.8411 33.4848C52.1517 32.3876 49.8106 32.5498 47.2208 34.21L45.7715 33.2749C48.3527 31.6147 50.6938 31.4621 52.3918 32.5498Z" fill="white"/>
</mask>
<g mask="url(#mask3_506_3122)">
<path d="M47.2208 34.21L45.7715 33.2749C46.2174 32.9887 46.6462 32.7502 47.075 32.5498L48.5242 33.4848C48.0954 33.6852 47.6581 33.9237 47.2208 34.21Z" fill="#87ABBB"/>
<path d="M48.5235 33.4823L47.0742 32.5473C47.443 32.3755 47.8117 32.2324 48.1633 32.1274L49.6126 33.0625C49.2524 33.177 48.8922 33.3106 48.5235 33.4823Z" fill="#84A7B7"/>
<path d="M49.6114 33.0734L48.1621 32.1383C48.4451 32.0525 48.7109 31.9857 48.9768 31.938L50.426 32.8731C50.1602 32.9208 49.8944 32.9875 49.6114 33.0734Z" fill="#80A3B2"/>
<path d="M50.4375 32.8737L48.9883 31.9386C49.2284 31.9005 49.4514 31.8718 49.6829 31.8623L51.1322 32.7973C50.9006 32.8069 50.6691 32.8355 50.4375 32.8737Z" fill="#7D9EAD"/>
<path d="M51.1223 32.7968L49.6816 31.8617C49.896 31.8522 50.0933 31.8522 50.2991 31.8713L51.7483 32.8063C51.5425 32.7872 51.3367 32.7872 51.1223 32.7968Z" fill="#7A9AA8"/>
<path d="M51.7403 32.7973L50.291 31.8623C50.4797 31.8718 50.6683 31.9005 50.8484 31.9386L52.2977 32.8737C52.1262 32.8355 51.9375 32.8164 51.7403 32.7973Z" fill="#7696A4"/>
<path d="M52.3067 32.873L50.8574 31.938C51.0375 31.9762 51.209 32.0143 51.3805 32.0716L52.8298 33.0066C52.6583 32.9494 52.4868 32.9112 52.3067 32.873Z" fill="#73929F"/>
<path d="M52.8282 33.0068L51.3789 32.0718C51.5504 32.129 51.7134 32.1863 51.8677 32.2626L53.317 33.1976C53.1541 33.1309 52.9911 33.0641 52.8282 33.0068Z" fill="#708D9A"/>
<path d="M53.3184 33.1982L51.8691 32.2632C52.0321 32.3395 52.1864 32.4254 52.3322 32.5208L53.7815 33.4559C53.6357 33.3604 53.4813 33.2746 53.3184 33.1982Z" fill="#6C8996"/>
<path d="M53.7793 33.4555L52.3301 32.5205C52.3472 32.53 52.3644 32.5396 52.3815 32.5491L53.8308 33.4842C53.8222 33.4746 53.8051 33.4651 53.7793 33.4555Z" fill="#698591"/>
</g>
<mask id="mask4_506_3122" style="mask-type:luminance" maskUnits="userSpaceOnUse" x="36" y="33" width="12" height="26">
<path d="M40.6521 58.7283L39.2029 57.7932C37.5306 56.7151 36.493 54.4156 36.4844 51.1525C36.4673 44.5785 40.6178 36.5733 45.7631 33.272L47.2124 34.207C42.0671 37.5083 37.9165 45.5135 37.9337 52.0875C37.9508 55.3506 38.9885 57.6501 40.6521 58.7283Z" fill="white"/>
</mask>
<g mask="url(#mask4_506_3122)">
<path d="M40.6521 58.7282L39.2028 57.7932C37.5306 56.715 36.493 54.4156 36.4844 51.1524C36.4844 50.4941 36.5273 49.8071 36.6044 49.1201L38.0537 50.0551C37.9765 50.7421 37.9336 51.4196 37.9336 52.0779C37.9508 55.3506 38.9884 57.6501 40.6521 58.7282Z" fill="#586F7A"/>
<path d="M38.0625 50.0572L36.6133 49.1221C36.6733 48.6451 36.7419 48.168 36.8363 47.6909L38.2855 48.626C38.1912 49.103 38.114 49.5896 38.0625 50.0572Z" fill="#5B747E"/>
<path d="M38.2774 48.6245L36.8281 47.6895C36.9053 47.2983 36.9911 46.8975 37.0854 46.5063L38.5347 47.4414C38.4403 47.8326 38.3546 48.2333 38.2774 48.6245Z" fill="#5F7883"/>
<path d="M38.543 47.4316L37.0938 46.4966C37.1795 46.1436 37.2824 45.7905 37.3853 45.4375L38.8346 46.3726C38.7317 46.7256 38.6288 47.0786 38.543 47.4316Z" fill="#627C88"/>
<path d="M38.834 46.3824L37.3848 45.4473C37.4791 45.1229 37.5906 44.7985 37.7021 44.4741L39.1513 45.4092C39.0313 45.724 38.9284 46.0484 38.834 46.3824Z" fill="#65808C"/>
<path d="M39.1426 45.3989L37.6934 44.4639C37.8048 44.149 37.9163 43.8437 38.0364 43.5288L39.4856 44.4639C39.3656 44.7787 39.2541 45.0936 39.1426 45.3989Z" fill="#698591"/>
<path d="M39.4864 44.475L38.0371 43.54C38.1572 43.2346 38.2772 42.9388 38.4059 42.6431L39.8551 43.5781C39.7265 43.8739 39.6064 44.1697 39.4864 44.475Z" fill="#6C8996"/>
<path d="M39.8555 43.5765L38.4062 42.6415C38.5349 42.3457 38.6721 42.0499 38.8093 41.7637L40.2586 42.6987C40.1213 42.985 39.9841 43.2808 39.8555 43.5765Z" fill="#708D9A"/>
<path d="M40.2578 42.69L38.8086 41.755C38.9458 41.4592 39.0916 41.173 39.2459 40.8867L40.6952 41.8218C40.5408 42.108 40.4036 42.4038 40.2578 42.69Z" fill="#73929F"/>
<path d="M40.6954 41.8202L39.2461 40.8851C39.4005 40.5894 39.5634 40.2936 39.7263 40.0073L41.1756 40.9424C41.0127 41.2286 40.8497 41.5244 40.6954 41.8202Z" fill="#7696A4"/>
<path d="M41.1758 40.9423L39.7266 40.0072C39.8981 39.7019 40.0782 39.4061 40.2668 39.1104L41.7161 40.0454C41.5274 40.3412 41.3473 40.637 41.1758 40.9423Z" fill="#7A9AA8"/>
<path d="M41.7168 40.0464L40.2676 39.1113C40.4648 38.7964 40.6706 38.4816 40.885 38.1763L42.3343 39.1113C42.1199 39.4166 41.9141 39.7315 41.7168 40.0464Z" fill="#7D9EAD"/>
<path d="M42.3321 39.1117L40.8828 38.1767C41.1315 37.8237 41.3802 37.4802 41.6374 37.1558L43.0867 38.0908C42.8294 38.4248 42.5808 38.7682 42.3321 39.1117Z" fill="#80A3B2"/>
<path d="M43.0879 38.0899L41.6387 37.1549C41.9645 36.735 42.3076 36.3343 42.6592 35.9526L44.1084 36.8877C43.7568 37.2694 43.4224 37.6701 43.0879 38.0899Z" fill="#84A7B7"/>
<path d="M44.1075 36.8881L42.6582 35.9531C43.6272 34.8845 44.6735 33.978 45.7711 33.272L47.2204 34.207C46.1227 34.9036 45.0765 35.8195 44.1075 36.8881Z" fill="#87ABBB"/>
</g>
<path d="M20.6634 43.022L19.2227 42.0869L74.2261 6.75537L75.6668 7.6904L20.6634 43.022Z" fill="#BFD4DB"/>
<path d="M75.6675 7.68945L75.779 49.5569C75.779 50.5492 75.1615 51.7418 74.3897 52.238L22.1734 85.7853C21.4016 86.2815 20.7755 85.8903 20.7755 84.898L20.6641 43.0306L75.6675 7.68945Z" fill="#DEF6FF"/>
<path d="M20.7736 84.8898L20.6622 43.0224L19.2129 42.0874L19.3244 83.9548C19.3244 84.4414 19.4787 84.7944 19.7274 84.9566C20.2077 85.2715 20.6965 85.5768 21.1767 85.8917C20.928 85.7199 20.7736 85.386 20.7736 84.8898Z" fill="#B2DDEA"/>
<mask id="mask5_506_3122" style="mask-type:luminance" maskUnits="userSpaceOnUse" x="29" y="29" width="4" height="6">
<path d="M31.236 30.8762C31.236 30.4277 31.0902 30.1128 30.8672 29.9697L32.3165 30.9048C32.548 31.0479 32.6852 31.3628 32.6852 31.8112C32.3765 31.6108 32.0764 31.42 31.7762 31.2196C31.5876 31.1051 31.4161 30.9907 31.236 30.8762C31.7162 31.191 32.205 31.4963 32.6852 31.8112C32.6852 32.7081 32.1193 33.8053 31.4161 34.2633L29.9668 33.3283C30.67 32.8703 31.236 31.7731 31.236 30.8762Z" fill="white"/>
</mask>
<g mask="url(#mask5_506_3122)">
<path d="M31.4161 34.2532L29.9668 33.3181C30.1126 33.2227 30.2584 33.0987 30.387 32.9556L31.8363 33.8906C31.7076 34.0337 31.5618 34.1578 31.4161 34.2532Z" fill="#87ABBB"/>
<path d="M31.836 33.8912L30.3867 32.9562C30.4382 32.8989 30.4811 32.8512 30.5239 32.7939L31.9732 33.729C31.9303 33.7863 31.8874 33.8339 31.836 33.8912Z" fill="#84A7B7"/>
<path d="M31.9727 33.7183L30.5234 32.7833C30.5577 32.7356 30.592 32.6878 30.6263 32.6401L32.0756 33.5752C32.0499 33.6324 32.007 33.6801 31.9727 33.7183Z" fill="#80A3B2"/>
<path d="M32.0762 33.585L30.627 32.6499C30.6527 32.6118 30.687 32.564 30.7127 32.5259L32.162 33.4609C32.1363 33.4991 32.1105 33.5468 32.0762 33.585Z" fill="#7D9EAD"/>
<path d="M32.1622 33.4619L30.7129 32.5269C30.7386 32.4887 30.7643 32.4505 30.7901 32.4028L32.2393 33.3379C32.2136 33.3761 32.1879 33.4142 32.1622 33.4619Z" fill="#7A9AA8"/>
<path d="M32.2383 33.3372L30.7891 32.4021C30.8148 32.3639 30.8319 32.3258 30.8577 32.2876L32.3069 33.2227C32.2812 33.2608 32.2555 33.299 32.2383 33.3372Z" fill="#7696A4"/>
<path d="M32.2989 33.2141L30.8496 32.2791C30.8668 32.2409 30.8925 32.2027 30.9096 32.1646L32.3589 33.0996C32.3418 33.1378 32.3246 33.1759 32.2989 33.2141Z" fill="#73929F"/>
<path d="M32.3594 33.0986L30.9102 32.1636C30.9273 32.1254 30.9445 32.0873 30.9616 32.0396L32.4109 32.9746C32.4023 33.0127 32.3851 33.0605 32.3594 33.0986Z" fill="#708D9A"/>
<path d="M32.42 32.9756L30.9707 32.0405C30.9879 32.0024 31.005 31.9547 31.0222 31.9165L32.4714 32.8515C32.4543 32.8992 32.4371 32.9374 32.42 32.9756Z" fill="#6C8996"/>
<path d="M32.4707 32.8511L31.0215 31.916C31.0386 31.8683 31.0558 31.8302 31.0644 31.792L32.5136 32.727C32.4965 32.7652 32.4793 32.8129 32.4707 32.8511Z" fill="#698591"/>
<path d="M32.5137 32.7263L31.0645 31.7913C31.0816 31.7436 31.0902 31.7054 31.1073 31.6577L32.5566 32.5928C32.548 32.6405 32.5309 32.6786 32.5137 32.7263Z" fill="#65808C"/>
<path d="M32.5567 32.5938L31.1074 31.6587C31.1246 31.611 31.1332 31.5633 31.1503 31.5156L32.5996 32.4507C32.5824 32.4984 32.5738 32.5461 32.5567 32.5938Z" fill="#627C88"/>
<path d="M32.5997 32.4513L31.1504 31.5162C31.1675 31.4589 31.1761 31.4113 31.1847 31.354L32.634 32.289C32.6254 32.3367 32.6082 32.394 32.5997 32.4513Z" fill="#5F7883"/>
<path d="M32.6348 32.28L31.1855 31.3449C31.2027 31.2781 31.2113 31.2113 31.2199 31.1445L32.6691 32.0796C32.6605 32.1559 32.652 32.2132 32.6348 32.28Z" fill="#5B747E"/>
<path d="M32.6602 32.0879L31.211 31.1528C31.2196 31.0574 31.2281 30.962 31.2281 30.8762C31.2281 30.4277 31.0823 30.1128 30.8594 29.9697L32.3086 30.9048C32.5402 31.0479 32.6774 31.3628 32.6774 31.8112C32.686 31.8971 32.6774 31.9925 32.6602 32.0879Z" fill="#586F7A"/>
</g>
<mask id="mask6_506_3122" style="mask-type:luminance" maskUnits="userSpaceOnUse" x="29" y="29" width="4" height="2">
<path d="M30.868 29.9564C30.9366 30.0041 31.0138 30.0518 31.0824 30.0995C31.494 30.3667 31.9056 30.6243 32.3087 30.8915C32.0771 30.7388 31.7598 30.7579 31.4083 30.9869L29.959 30.0518C30.3106 29.8324 30.6364 29.8133 30.868 29.9564Z" fill="white"/>
</mask>
<g mask="url(#mask6_506_3122)">
<path d="M31.4083 30.9963L29.959 30.0612C30.019 30.0231 30.079 29.9849 30.1391 29.9658L31.5883 30.9009C31.5283 30.92 31.4683 30.9581 31.4083 30.9963Z" fill="#B2C5CC"/>
<path d="M31.5879 30.9015L30.1387 29.9664C30.1901 29.9473 30.2416 29.9187 30.2845 29.9092L31.7337 30.8442C31.6908 30.8538 31.6394 30.8729 31.5879 30.9015Z" fill="#ADC0C7"/>
<path d="M31.7344 30.8343L30.2852 29.8992C30.3195 29.8897 30.3623 29.8801 30.3966 29.8706L31.8459 30.8057C31.8116 30.8152 31.7773 30.8247 31.7344 30.8343Z" fill="#A9BBC2"/>
<path d="M31.8458 30.8152L30.3965 29.8802C30.4308 29.8802 30.4565 29.8706 30.4908 29.8706L31.9401 30.8057C31.9144 30.8057 31.8801 30.8056 31.8458 30.8152Z" fill="#A4B6BD"/>
<path d="M31.9395 30.8057L30.4902 29.8706C30.516 29.8706 30.5503 29.8706 30.576 29.8706L32.0253 30.8057C31.9995 30.7961 31.9738 30.7961 31.9395 30.8057Z" fill="#A0B1B8"/>
<path d="M32.0254 30.8057L30.5762 29.8706C30.6019 29.8706 30.6276 29.8802 30.6533 29.8802L32.1026 30.8152C32.0769 30.8056 32.0512 30.8057 32.0254 30.8057Z" fill="#9BACB3"/>
<path d="M32.1036 30.8154L30.6543 29.8804C30.68 29.8899 30.7058 29.8899 30.7229 29.8994L32.1722 30.8345C32.155 30.825 32.1293 30.8154 32.1036 30.8154Z" fill="#97A7AD"/>
<path d="M32.1719 30.8345L30.7227 29.8994C30.7484 29.909 30.7655 29.9185 30.7913 29.928L32.2405 30.8631C32.2234 30.844 32.1977 30.8345 32.1719 30.8345Z" fill="#93A2A8"/>
<path d="M32.2403 30.854L30.791 29.9189C30.8167 29.9285 30.8339 29.938 30.8596 29.9571L32.3089 30.8922C32.2832 30.8826 32.266 30.8635 32.2403 30.854Z" fill="#8E9DA3"/>
<path d="M32.3086 30.8901L30.8594 29.9551H30.8679L32.3086 30.8901Z" fill="#8A999E"/>
</g>
<mask id="mask7_506_3122" style="mask-type:luminance" maskUnits="userSpaceOnUse" x="28" y="30" width="4" height="5">
<path d="M30.5055 34.3514L29.0562 33.4164C28.8247 33.2733 28.6875 32.9584 28.6875 32.51C28.6875 31.6131 29.2535 30.5158 29.9567 30.0674L31.4059 31.0024C30.7027 31.4509 30.1282 32.5481 30.1368 33.445C30.1368 33.8934 30.274 34.2083 30.5055 34.3514Z" fill="white"/>
</mask>
<g mask="url(#mask7_506_3122)">
<path d="M30.5055 34.3496L29.0562 33.4146C28.8247 33.2714 28.6875 32.9566 28.6875 32.5082C28.6875 32.4127 28.6961 32.3269 28.7046 32.2314L30.1539 33.1665C30.1453 33.2619 30.1368 33.3478 30.1368 33.4432C30.1368 33.8916 30.274 34.2065 30.5055 34.3496Z" fill="#738085"/>
<path d="M30.1446 33.1676L28.6953 32.2326C28.7039 32.1658 28.7125 32.099 28.721 32.0322L30.1703 32.9673C30.1703 33.0436 30.1532 33.1009 30.1446 33.1676Z" fill="#78858A"/>
<path d="M30.1797 32.9762L28.7305 32.0411C28.739 31.9839 28.7562 31.9362 28.7648 31.8789L30.214 32.814C30.2055 32.8617 30.1883 32.9189 30.1797 32.9762Z" fill="#7C8A8F"/>
<path d="M30.2129 32.8135L28.7637 31.8785C28.7722 31.8308 28.7894 31.7831 28.8066 31.7354L30.2558 32.6704C30.2387 32.7181 30.2215 32.7658 30.2129 32.8135Z" fill="#818F94"/>
<path d="M30.2559 32.6712L28.8066 31.7361C28.8152 31.6884 28.8324 31.6502 28.8495 31.6025L30.2988 32.5376C30.2816 32.5758 30.2645 32.6235 30.2559 32.6712Z" fill="#859499"/>
<path d="M30.3008 32.5376L28.8516 31.6026C28.8687 31.5549 28.8773 31.5167 28.8944 31.4785L30.3437 32.4136C30.3265 32.4517 30.3094 32.4899 30.3008 32.5376Z" fill="#8A999E"/>
<path d="M30.3418 32.4028L28.8926 31.4678C28.9097 31.4296 28.9269 31.3915 28.944 31.3438L30.3933 32.2788C30.3761 32.3265 30.359 32.3647 30.3418 32.4028Z" fill="#8E9DA3"/>
<path d="M30.3946 32.2788L28.9453 31.3438C28.9625 31.3056 28.9796 31.2674 28.9968 31.2197L30.446 32.1548C30.4289 32.2025 30.4117 32.2407 30.3946 32.2788Z" fill="#93A2A8"/>
<path d="M30.4454 32.1648L28.9961 31.2297C29.0132 31.1916 29.0304 31.1534 29.0561 31.1152L30.5054 32.0503C30.4882 32.0884 30.4711 32.1266 30.4454 32.1648Z" fill="#97A7AD"/>
<path d="M30.5059 32.041L29.0566 31.106C29.0824 31.0678 29.0995 31.0296 29.1252 30.9819L30.5745 31.917C30.5488 31.9647 30.5316 32.0029 30.5059 32.041Z" fill="#9BACB3"/>
<path d="M30.5743 31.9263L29.125 30.9912C29.1507 30.9435 29.1765 30.9054 29.2022 30.8672L30.6514 31.8022C30.6257 31.8404 30.6 31.8786 30.5743 31.9263Z" fill="#A0B1B8"/>
<path d="M30.6524 31.803L29.2031 30.868C29.2289 30.8203 29.2546 30.7821 29.2889 30.7344L30.7382 31.6694C30.7038 31.7171 30.6781 31.7553 30.6524 31.803Z" fill="#A4B6BD"/>
<path d="M30.7285 31.678L29.2793 30.7429C29.3136 30.6952 29.3479 30.6475 29.3822 30.6094L30.8315 31.5444C30.7972 31.5826 30.7629 31.6303 30.7285 31.678Z" fill="#A9BBC2"/>
<path d="M30.8399 31.5347L29.3906 30.5997C29.4335 30.5425 29.485 30.4852 29.5278 30.4375L30.9771 31.3726C30.9257 31.4203 30.8828 31.4775 30.8399 31.5347Z" fill="#ADC0C7"/>
<path d="M30.9766 31.3638L29.5273 30.4288C29.6646 30.2856 29.8018 30.1616 29.9561 30.0566L31.4054 30.9917C31.251 31.0967 31.1052 31.2207 30.9766 31.3638Z" fill="#B2C5CC"/>
</g>
<mask id="mask8_506_3122" style="mask-type:luminance" maskUnits="userSpaceOnUse" x="28" y="33" width="2" height="1">
<path d="M28.0117 33.1631C28.4405 33.4398 28.8607 33.7165 29.2895 33.9932C28.8607 33.7069 28.4319 33.4398 28.0117 33.1631Z" fill="white"/>
</mask>
<g mask="url(#mask8_506_3122)">
<path d="M29.2716 34.2617L27.8223 33.3267C27.8309 33.2313 27.8394 33.1454 27.8394 33.05C27.8394 32.6016 27.6937 32.2867 27.4707 32.1436L28.92 33.0786C29.1515 33.2217 29.2887 33.5366 29.2887 33.985C29.2887 34.0804 29.2801 34.1663 29.2716 34.2617Z" fill="#586F7A"/>
</g>
<mask id="mask9_506_3122" style="mask-type:luminance" maskUnits="userSpaceOnUse" x="26" y="32" width="4" height="5">
<path d="M27.8414 33.0471C27.8414 32.5986 27.6957 32.2837 27.4727 32.1406L28.922 33.0757C29.1535 33.2188 29.2907 33.5337 29.2907 33.9821C28.8105 33.6768 28.3217 33.3619 27.8414 33.0471C28.3217 33.3619 28.8105 33.6672 29.2907 33.9821C29.2907 34.879 28.7247 35.9762 28.0215 36.4342L26.5723 35.4992C27.2755 35.0412 27.8414 33.9439 27.8414 33.0471Z" fill="white"/>
</mask>
<g mask="url(#mask9_506_3122)">
<path d="M28.0215 36.4338L26.5723 35.4988C26.718 35.4034 26.8638 35.2794 27.001 35.1362L28.4503 36.0713C28.3131 36.2144 28.1673 36.3384 28.0215 36.4338Z" fill="#87ABBB"/>
<path d="M28.4415 36.0719L26.9922 35.1368C27.0436 35.0796 27.0865 35.0319 27.1294 34.9746L28.5787 35.9097C28.5358 35.9574 28.4929 36.0146 28.4415 36.0719Z" fill="#84A7B7"/>
<path d="M28.5782 35.8995L27.1289 34.9644C27.1632 34.9167 27.1975 34.869 27.2318 34.8213L28.6811 35.7564C28.6468 35.8136 28.6125 35.8518 28.5782 35.8995Z" fill="#80A3B2"/>
<path d="M28.6817 35.7566L27.2324 34.8216C27.2581 34.7738 27.2924 34.7357 27.3182 34.688L28.7674 35.623C28.7417 35.6803 28.716 35.7184 28.6817 35.7566Z" fill="#7D9EAD"/>
<path d="M28.7676 35.6328L27.3184 34.6978C27.3441 34.6596 27.3698 34.6214 27.3955 34.5737L28.8448 35.5088C28.8191 35.547 28.7934 35.5947 28.7676 35.6328Z" fill="#7A9AA8"/>
<path d="M28.8438 35.5093L27.3945 34.5742C27.4203 34.536 27.4374 34.4979 27.4631 34.4502L28.9124 35.3852C28.8867 35.4329 28.8695 35.4711 28.8438 35.5093Z" fill="#7696A4"/>
<path d="M28.9141 35.3848L27.4648 34.4497C27.4906 34.4116 27.5077 34.3734 27.5249 34.3257L28.9741 35.2607C28.9484 35.3084 28.9313 35.3466 28.9141 35.3848Z" fill="#73929F"/>
<path d="M28.9727 35.2695L27.5234 34.3345C27.5406 34.2963 27.5577 34.2582 27.5835 34.2104L29.0327 35.1455C29.007 35.1932 28.9899 35.2314 28.9727 35.2695Z" fill="#708D9A"/>
<path d="M29.0254 35.1465L27.5762 34.2114C27.5933 34.1733 27.6105 34.1256 27.6276 34.0874L29.0769 35.0224C29.0597 35.0701 29.0426 35.1083 29.0254 35.1465Z" fill="#6C8996"/>
<path d="M29.0762 35.022L27.627 34.0869C27.6441 34.0488 27.6613 34.0011 27.6698 33.9629L29.1191 34.898C29.1105 34.9457 29.0934 34.9838 29.0762 35.022Z" fill="#698591"/>
<path d="M29.1192 34.8973L27.6699 33.9622C27.6871 33.9145 27.7042 33.8763 27.7128 33.8286L29.1621 34.7637C29.1535 34.8114 29.1363 34.8496 29.1192 34.8973Z" fill="#65808C"/>
<path d="M29.1622 34.7647L27.7129 33.8296C27.73 33.7819 27.7386 33.7342 27.7558 33.6865L29.205 34.6216C29.1964 34.6693 29.1793 34.717 29.1622 34.7647Z" fill="#627C88"/>
<path d="M29.2051 34.6222L27.7559 33.6871C27.773 33.6298 27.7816 33.5822 27.7902 33.5249L29.2394 34.4599C29.2309 34.5076 29.2223 34.5649 29.2051 34.6222Z" fill="#5F7883"/>
<path d="M29.2403 34.4587L27.791 33.5236C27.8082 33.4568 27.8167 33.39 27.8253 33.3232L29.2746 34.2583C29.266 34.3251 29.2574 34.3919 29.2403 34.4587Z" fill="#5B747E"/>
<path d="M29.2735 34.2588L27.8242 33.3237C27.8328 33.2283 27.8414 33.1425 27.8414 33.0471C27.8414 32.5986 27.6956 32.2837 27.4727 32.1406L28.9219 33.0757C29.1534 33.2188 29.2907 33.5337 29.2907 33.9821C29.2907 34.0775 29.2821 34.1634 29.2735 34.2588Z" fill="#586F7A"/>
</g>
<mask id="mask10_506_3122" style="mask-type:luminance" maskUnits="userSpaceOnUse" x="25" y="35" width="4" height="2">
<path d="M25.6602 35.5974C25.8917 35.75 26.209 35.7309 26.5692 35.502C26.9979 35.7787 27.4181 36.0554 27.8469 36.3321L28.0184 36.437C27.6668 36.666 27.3409 36.6851 27.1094 36.5324C26.6721 36.2557 26.0975 35.8836 25.6602 35.5974Z" fill="white"/>
</mask>
<g mask="url(#mask10_506_3122)">
<path d="M27.1094 36.5322L25.6602 35.5972L25.6687 35.6067L27.1094 36.5418V36.5322Z" fill="#698591"/>
<path d="M27.1094 36.5415L25.6602 35.6064C25.6859 35.616 25.703 35.6351 25.7288 35.6446L27.178 36.5797C27.1523 36.5606 27.1351 36.551 27.1094 36.5415Z" fill="#6C8996"/>
<path d="M27.1778 36.5708L25.7285 35.6357C25.7542 35.6453 25.7714 35.6548 25.7971 35.6644L27.2464 36.5994C27.2206 36.5899 27.2035 36.5803 27.1778 36.5708Z" fill="#708D9A"/>
<path d="M27.2461 36.5986L25.7969 35.6636C25.8226 35.6731 25.8483 35.6826 25.8655 35.6826L27.3147 36.6177C27.289 36.6177 27.2633 36.6082 27.2461 36.5986Z" fill="#73929F"/>
<path d="M27.3145 36.6187L25.8652 35.6836C25.891 35.6836 25.9167 35.6931 25.9424 35.6931L27.3917 36.6282C27.366 36.6282 27.3402 36.6282 27.3145 36.6187Z" fill="#7696A4"/>
<path d="M27.3926 36.6284L25.9434 35.6934C25.9691 35.6934 25.9948 35.6934 26.0291 35.6934L27.4784 36.6284C27.4526 36.6284 27.4269 36.6284 27.3926 36.6284Z" fill="#7A9AA8"/>
<path d="M27.4786 36.6282L26.0293 35.6931C26.0636 35.6931 26.0893 35.6836 26.1236 35.6836L27.5729 36.6187C27.5386 36.6282 27.5129 36.6282 27.4786 36.6282Z" fill="#7D9EAD"/>
<path d="M27.5723 36.6185L26.123 35.6834C26.1573 35.6739 26.2002 35.6739 26.2345 35.6548L27.6838 36.5898C27.6495 36.6089 27.6066 36.6185 27.5723 36.6185Z" fill="#80A3B2"/>
<path d="M27.6836 36.5895L26.2344 35.6544C26.2858 35.6353 26.3287 35.6258 26.3802 35.5972L27.8294 36.5322C27.7865 36.5609 27.7351 36.5799 27.6836 36.5895Z" fill="#84A7B7"/>
<path d="M27.8379 36.5324L26.3887 35.5974C26.4487 35.5687 26.5087 35.5401 26.5688 35.502L28.018 36.437C27.9494 36.4752 27.898 36.5038 27.8379 36.5324Z" fill="#87ABBB"/>
</g>
<mask id="mask11_506_3122" style="mask-type:luminance" maskUnits="userSpaceOnUse" x="26" y="32" width="3" height="2">
<path d="M27.4715 32.1424L28.9208 33.0775C28.6892 32.9248 28.3634 32.9439 28.0118 33.1729L26.5625 32.2379C26.9141 32.0184 27.24 31.9993 27.4715 32.1424Z" fill="white"/>
</mask>
<g mask="url(#mask11_506_3122)">
<path d="M28.0118 33.184L26.5625 32.249C26.6225 32.2108 26.6826 32.1727 26.7426 32.144L28.1919 33.0791C28.1318 33.1077 28.0718 33.1363 28.0118 33.184Z" fill="#B2C5CC"/>
<path d="M28.1836 33.0797L26.7344 32.1446C26.7858 32.1256 26.8373 32.0969 26.8802 32.0874L28.3294 33.0225C28.2865 33.0415 28.2351 33.0606 28.1836 33.0797Z" fill="#ADC0C7"/>
<path d="M28.3379 33.0223L26.8887 32.0872C26.9315 32.0777 26.9659 32.0681 27.0002 32.0586L28.4494 32.9937C28.4151 33.0032 28.3722 33.0127 28.3379 33.0223Z" fill="#A9BBC2"/>
<path d="M28.4493 33.0032L27 32.0681C27.0343 32.0586 27.06 32.0586 27.0943 32.0586L28.5436 32.9937C28.5093 32.9841 28.4836 32.9936 28.4493 33.0032Z" fill="#A4B6BD"/>
<path d="M28.543 32.9839L27.0938 32.0488C27.1195 32.0488 27.1538 32.0488 27.1795 32.0488L28.6288 32.9839C28.603 32.9839 28.5773 32.9839 28.543 32.9839Z" fill="#A0B1B8"/>
<path d="M28.6309 32.9839L27.1816 32.0488C27.2074 32.0488 27.2331 32.0584 27.2588 32.0584L28.7081 32.9934C28.6824 32.9934 28.6566 32.9934 28.6309 32.9839Z" fill="#9BACB3"/>
<path d="M28.7071 33.0019L27.2578 32.0669C27.2835 32.0669 27.3093 32.0764 27.3264 32.086L28.7757 33.021C28.7585 33.0115 28.7328 33.0019 28.7071 33.0019Z" fill="#97A7AD"/>
<path d="M28.7833 33.0127L27.334 32.0776C27.3597 32.0872 27.3769 32.0967 27.4026 32.1063L28.8519 33.0413C28.8261 33.0318 28.8004 33.0222 28.7833 33.0127Z" fill="#93A2A8"/>
<path d="M28.8438 33.0405L27.3945 32.1055C27.4117 32.115 27.4374 32.1246 27.4546 32.1436L28.9038 33.0787C28.8867 33.0692 28.8695 33.0501 28.8438 33.0405Z" fill="#8E9DA3"/>
<path d="M28.9102 33.0791L27.4609 32.144H27.4695L28.9188 33.0791H28.9102Z" fill="#8A999E"/>
</g>
<mask id="mask12_506_3122" style="mask-type:luminance" maskUnits="userSpaceOnUse" x="25" y="32" width="4" height="5">
<path d="M27.1117 36.536C26.6315 36.2212 26.1513 35.9158 25.6625 35.601C25.4309 35.4579 25.2852 35.143 25.2852 34.6946C25.2852 33.7977 25.8511 32.7004 26.5543 32.252L28.0036 33.187C27.3004 33.6355 26.7258 34.7327 26.7344 35.6296C26.7344 36.078 26.8802 36.3929 27.1117 36.536Z" fill="white"/>
</mask>
<g mask="url(#mask12_506_3122)">
<path d="M27.1117 36.5352L25.6625 35.6001C25.4309 35.457 25.2852 35.1421 25.2852 34.6937C25.2852 34.6078 25.2937 34.5124 25.3023 34.417L26.743 35.352C26.7344 35.4474 26.7258 35.5429 26.7258 35.6287C26.7344 36.0772 26.8802 36.3921 27.1117 36.5352Z" fill="#738085"/>
<path d="M26.7512 35.3532L25.3105 34.4181C25.3191 34.3513 25.3277 34.2846 25.3363 34.2178L26.7855 35.1528C26.7684 35.2196 26.7598 35.2864 26.7512 35.3532Z" fill="#78858A"/>
<path d="M26.7852 35.1534L25.3359 34.2184C25.3445 34.1611 25.3617 34.1134 25.3702 34.0562L26.8195 34.9912C26.8023 35.0485 26.7938 35.1057 26.7852 35.1534Z" fill="#7C8A8F"/>
<path d="M26.8204 34.9908L25.3711 34.0557C25.3797 34.008 25.3968 33.9603 25.414 33.9126L26.8632 34.8476C26.8461 34.8953 26.8289 34.9526 26.8204 34.9908Z" fill="#818F94"/>
<path d="M26.8536 34.8479L25.4043 33.9129C25.4214 33.8652 25.43 33.827 25.4472 33.7793L26.8964 34.7144C26.8879 34.7621 26.8707 34.8098 26.8536 34.8479Z" fill="#859499"/>
<path d="M26.8985 34.7129L25.4492 33.7779C25.4664 33.7397 25.4835 33.692 25.4921 33.6538L26.9414 34.5889C26.9328 34.6366 26.9156 34.6747 26.8985 34.7129Z" fill="#8A999E"/>
<path d="M26.9493 34.5884L25.5 33.6533C25.5172 33.6151 25.5343 33.5675 25.5515 33.5293L27.0007 34.4643C26.9836 34.5025 26.9664 34.5502 26.9493 34.5884Z" fill="#8E9DA3"/>
<path d="M27 34.4648L25.5508 33.5298C25.5679 33.4916 25.5851 33.4535 25.6108 33.4058L27.0515 34.3408C27.0343 34.3885 27.0172 34.4267 27 34.4648Z" fill="#93A2A8"/>
<path d="M27.052 34.3508L25.6113 33.4158C25.6285 33.3776 25.6456 33.3394 25.6714 33.3013L27.1206 34.2363C27.0949 34.265 27.0692 34.3127 27.052 34.3508Z" fill="#97A7AD"/>
<path d="M27.1114 34.2266L25.6621 33.2915C25.6878 33.2534 25.705 33.2152 25.7307 33.1675L27.18 34.1025C27.1542 34.1502 27.1371 34.1884 27.1114 34.2266Z" fill="#9BACB3"/>
<path d="M27.1797 34.1123L25.7305 33.1772C25.7562 33.1391 25.7819 33.1009 25.8076 33.0532L27.2569 33.9883C27.2226 34.0264 27.2054 34.0646 27.1797 34.1123Z" fill="#A0B1B8"/>
<path d="M27.25 33.9888L25.8008 33.0537C25.8265 33.006 25.8608 32.9679 25.8865 32.9297L27.3358 33.8647C27.3101 33.9029 27.2758 33.9411 27.25 33.9888Z" fill="#A4B6BD"/>
<path d="M27.334 33.8545L25.8848 32.9195C25.9191 32.8718 25.9534 32.8241 25.9877 32.7764L27.4369 33.7114C27.4026 33.7591 27.3683 33.8068 27.334 33.8545Z" fill="#A9BBC2"/>
<path d="M27.4375 33.7208L25.9883 32.7858C26.0312 32.7285 26.0826 32.6712 26.1255 32.6235L27.5748 33.5586C27.5319 33.6063 27.489 33.6635 27.4375 33.7208Z" fill="#ADC0C7"/>
<path d="M27.5821 33.5493L26.1328 32.6143C26.27 32.4712 26.4072 32.3376 26.5616 32.2422L28.0109 33.1772C27.8565 33.2822 27.7107 33.4062 27.5821 33.5493Z" fill="#B2C5CC"/>
</g>
<mask id="mask13_506_3122" style="mask-type:luminance" maskUnits="userSpaceOnUse" x="24" y="35" width="2" height="2">
<path d="M24.6094 35.3496C25.0382 35.6263 25.4584 35.903 25.8871 36.1702C25.4669 35.8935 25.0382 35.6168 24.6094 35.3496Z" fill="white"/>
</mask>
<g mask="url(#mask13_506_3122)">
<path d="M25.879 36.4473L24.4297 35.5122C24.4383 35.4168 24.4469 35.3309 24.4469 35.2355C24.4469 34.7871 24.3011 34.4818 24.0781 34.3291L25.5274 35.2641C25.7589 35.4168 25.8961 35.7221 25.8961 36.1706C25.8876 36.2564 25.8876 36.3519 25.879 36.4473Z" fill="#586F7A"/>
</g>
<mask id="mask14_506_3122" style="mask-type:luminance" maskUnits="userSpaceOnUse" x="23" y="34" width="3" height="5">
<path d="M24.4469 35.235C24.4469 34.7866 24.3011 34.4813 24.0782 34.3286L25.5274 35.2636C25.759 35.4163 25.8962 35.7216 25.8962 36.1701C25.4074 35.8552 24.9272 35.5499 24.4469 35.235C24.9272 35.5499 25.4074 35.8552 25.8962 36.1701C25.8962 37.067 25.3302 38.1642 24.627 38.6222L23.1777 37.6872C23.8724 37.2292 24.4469 36.1319 24.4469 35.235Z" fill="white"/>
</mask>
<g mask="url(#mask14_506_3122)">
<path d="M24.6172 38.6219L23.168 37.6868C23.3138 37.5914 23.4595 37.4673 23.5967 37.3242L25.046 38.2593C24.9088 38.4024 24.7716 38.5264 24.6172 38.6219Z" fill="#87ABBB"/>
<path d="M25.0469 38.2501L23.5977 37.315C23.6491 37.2673 23.692 37.2101 23.7349 37.1528L25.1841 38.0879C25.1412 38.1451 25.0898 38.2024 25.0469 38.2501Z" fill="#84A7B7"/>
<path d="M25.1836 38.0875L23.7344 37.1524C23.7687 37.1047 23.803 37.057 23.8373 37.0093L25.2865 37.9443C25.2522 37.992 25.2179 38.0397 25.1836 38.0875Z" fill="#80A3B2"/>
<path d="M25.2852 37.9438L23.8359 37.0088C23.8617 36.9706 23.896 36.9229 23.9217 36.8848L25.371 37.8198C25.3452 37.858 25.3195 37.9057 25.2852 37.9438Z" fill="#7D9EAD"/>
<path d="M25.3711 37.8208L23.9219 36.8858C23.9476 36.8476 23.9733 36.7999 23.9991 36.7617L25.4483 37.6968C25.4226 37.7349 25.3969 37.7827 25.3711 37.8208Z" fill="#7A9AA8"/>
<path d="M25.4493 37.6973L24 36.7622C24.0257 36.7241 24.0429 36.6859 24.0686 36.6382L25.5179 37.5732C25.4921 37.621 25.4664 37.6591 25.4493 37.6973Z" fill="#7696A4"/>
<path d="M25.5098 37.5728L24.0605 36.6377C24.0777 36.5995 24.1034 36.5614 24.1206 36.5137L25.5613 37.4487C25.5527 37.4964 25.5355 37.5346 25.5098 37.5728Z" fill="#73929F"/>
<path d="M25.5696 37.4575L24.1289 36.5225C24.1461 36.4843 24.1632 36.4461 24.1804 36.3984L25.6296 37.3335C25.6125 37.3717 25.5953 37.4194 25.5696 37.4575Z" fill="#708D9A"/>
<path d="M25.629 37.3345L24.1797 36.3994C24.1968 36.3613 24.214 36.3231 24.2312 36.2754L25.6804 37.2105C25.6633 37.2486 25.6461 37.2963 25.629 37.3345Z" fill="#6C8996"/>
<path d="M25.6797 37.21L24.2305 36.2749C24.2476 36.2272 24.2648 36.189 24.2819 36.1509L25.7312 37.0859C25.7055 37.1241 25.6969 37.1718 25.6797 37.21Z" fill="#698591"/>
<path d="M25.7227 37.0852L24.2734 36.1502C24.2906 36.1025 24.2992 36.0643 24.3163 36.0166L25.7656 36.9517C25.7484 36.9898 25.7399 37.0375 25.7227 37.0852Z" fill="#65808C"/>
<path d="M25.7676 36.9527L24.3184 36.0176C24.3355 35.9699 24.3441 35.9222 24.3612 35.8745L25.8105 36.8096C25.7934 36.8573 25.7848 36.905 25.7676 36.9527Z" fill="#627C88"/>
<path d="M25.8086 36.7999L24.3594 35.8648C24.368 35.8076 24.3851 35.7503 24.3937 35.7026L25.8429 36.6377C25.8344 36.6949 25.8172 36.7522 25.8086 36.7999Z" fill="#5F7883"/>
<path d="M25.8438 36.6467L24.3945 35.7116C24.4031 35.6448 24.4203 35.578 24.4288 35.5112L25.8781 36.4463C25.8695 36.5131 25.8524 36.5799 25.8438 36.6467Z" fill="#5B747E"/>
<path d="M25.879 36.4468L24.4297 35.5117C24.4383 35.4163 24.4469 35.3304 24.4469 35.235C24.4469 34.7866 24.3011 34.4813 24.0781 34.3286L25.5274 35.2636C25.7589 35.4163 25.8961 35.7216 25.8961 36.1701C25.8876 36.256 25.8876 36.3514 25.879 36.4468Z" fill="#586F7A"/>
</g>
<mask id="mask15_506_3122" style="mask-type:luminance" maskUnits="userSpaceOnUse" x="23" y="34" width="3" height="2">
<path d="M24.077 34.3299L25.5262 35.2649C25.2947 35.1123 24.9688 35.1409 24.6172 35.3699L23.168 34.4348C23.5196 34.2059 23.8369 34.1772 24.077 34.3299Z" fill="white"/>
</mask>
<g mask="url(#mask15_506_3122)">
<path d="M24.6094 35.3605L23.1602 34.4255C23.2202 34.3873 23.2802 34.3492 23.3402 34.3301L24.7895 35.2651C24.7295 35.2937 24.6694 35.3224 24.6094 35.3605Z" fill="#B2C5CC"/>
<path d="M24.7891 35.2657L23.3398 34.3307C23.3913 34.3116 23.4428 34.283 23.4942 34.2734L24.9435 35.2085C24.892 35.2276 24.8406 35.2371 24.7891 35.2657Z" fill="#ADC0C7"/>
<path d="M24.9434 35.2083L23.4941 34.2733C23.5284 34.2637 23.5713 34.2542 23.6056 34.2446L25.0549 35.1797C25.0206 35.1892 24.9777 35.1987 24.9434 35.2083Z" fill="#A9BBC2"/>
<path d="M25.0547 35.1794L23.6055 34.2444C23.6398 34.2349 23.6655 34.2349 23.6998 34.2349L25.1491 35.1699C25.1148 35.1699 25.089 35.1794 25.0547 35.1794Z" fill="#A4B6BD"/>
<path d="M25.1504 35.1699L23.7012 34.2349C23.7269 34.2349 23.7612 34.2349 23.7869 34.2349L25.2362 35.1699C25.2105 35.1699 25.1762 35.1699 25.1504 35.1699Z" fill="#A0B1B8"/>
<path d="M25.2344 35.1699L23.7852 34.2349C23.8109 34.2349 23.8366 34.2444 23.8623 34.2444L25.3116 35.1794C25.2859 35.1794 25.2601 35.1699 25.2344 35.1699Z" fill="#9BACB3"/>
<path d="M25.3125 35.1797L23.8633 34.2446C23.889 34.2542 23.9147 34.2542 23.9319 34.2637L25.3812 35.1988C25.3554 35.1892 25.3383 35.1892 25.3125 35.1797Z" fill="#97A7AD"/>
<path d="M25.3809 35.1987L23.9316 34.2637C23.9574 34.2732 23.9745 34.2828 24.0002 34.2923L25.4495 35.2274C25.4324 35.2178 25.4066 35.2083 25.3809 35.1987Z" fill="#93A2A8"/>
<path d="M25.4493 35.2266L24 34.2915C24.0257 34.301 24.0429 34.3106 24.0686 34.3297L25.5179 35.2647C25.4921 35.2456 25.475 35.2361 25.4493 35.2266Z" fill="#8E9DA3"/>
<path d="M25.511 35.2651L24.0703 34.3301H24.0789L25.5196 35.2651H25.511Z" fill="#8A999E"/>
</g>
<mask id="mask16_506_3122" style="mask-type:luminance" maskUnits="userSpaceOnUse" x="21" y="34" width="4" height="5">
<path d="M23.7075 38.7221L22.2582 37.787C22.0266 37.6439 21.8894 37.329 21.8809 36.8806C21.8809 35.9837 22.4468 34.8864 23.1586 34.438L24.6079 35.373C23.9047 35.8215 23.3301 36.9187 23.3387 37.8156C23.3387 38.2545 23.4845 38.5694 23.7075 38.7221Z" fill="white"/>
</mask>
<g mask="url(#mask16_506_3122)">
<path d="M23.7075 38.7197L22.2582 37.7847C22.0266 37.6416 21.8894 37.3267 21.8809 36.8782C21.8809 36.7924 21.8894 36.697 21.898 36.6016L23.3473 37.5366C23.3387 37.632 23.3301 37.7179 23.3301 37.8133C23.3387 38.2522 23.4845 38.5671 23.7075 38.7197Z" fill="#738085"/>
<path d="M23.3555 37.5378L21.9062 36.6027C21.9148 36.5359 21.9234 36.4691 21.932 36.4023L23.3812 37.3374C23.3727 37.4042 23.3641 37.471 23.3555 37.5378Z" fill="#78858A"/>
<path d="M23.3809 37.338L21.9316 36.4029C21.9402 36.3457 21.9574 36.298 21.9659 36.2407L23.4152 37.1758C23.4066 37.233 23.3981 37.2903 23.3809 37.338Z" fill="#7C8A8F"/>
<path d="M23.4161 37.1758L21.9668 36.2408C21.9754 36.1931 21.9925 36.1454 22.0097 36.0977L23.4589 37.0327C23.4418 37.0804 23.4332 37.1281 23.4161 37.1758Z" fill="#818F94"/>
<path d="M23.459 37.0325L22.0098 36.0975C22.0183 36.0498 22.0355 36.0116 22.0526 35.9639L23.5019 36.8989C23.4848 36.9466 23.4762 36.9943 23.459 37.0325Z" fill="#859499"/>
<path d="M23.502 36.8985L22.0527 35.9634C22.0699 35.9157 22.0785 35.8775 22.0956 35.8394L23.5449 36.7744C23.5363 36.8126 23.5192 36.8603 23.502 36.8985Z" fill="#8A999E"/>
<path d="M23.5528 36.773L22.1035 35.8379C22.1207 35.7997 22.1378 35.752 22.155 35.7139L23.6042 36.6489C23.5785 36.6871 23.5614 36.7348 23.5528 36.773Z" fill="#8E9DA3"/>
<path d="M23.5958 36.6499L22.1465 35.7149C22.1636 35.6767 22.1808 35.629 22.1979 35.5908L23.6472 36.5259C23.6386 36.5736 23.6129 36.6118 23.5958 36.6499Z" fill="#93A2A8"/>
<path d="M23.6563 36.5249L22.207 35.5898C22.2242 35.5517 22.2499 35.5135 22.2671 35.4658L23.7163 36.4009C23.6906 36.4486 23.6734 36.4867 23.6563 36.5249Z" fill="#97A7AD"/>
<path d="M23.7168 36.4116L22.2676 35.4766C22.2847 35.4384 22.3105 35.4002 22.3362 35.3525L23.7854 36.2876C23.7597 36.3353 23.734 36.3735 23.7168 36.4116Z" fill="#9BACB3"/>
<path d="M23.7754 36.2866L22.3262 35.3516C22.3519 35.3134 22.3776 35.2752 22.4033 35.2275L23.8526 36.1626C23.8269 36.2103 23.8012 36.2484 23.7754 36.2866Z" fill="#A0B1B8"/>
<path d="M23.8536 36.1636L22.4043 35.2285C22.43 35.1808 22.4557 35.1427 22.49 35.1045L23.9393 36.0395C23.905 36.0872 23.8793 36.1254 23.8536 36.1636Z" fill="#A4B6BD"/>
<path d="M23.9395 36.0391L22.4902 35.1041C22.5245 35.0563 22.5588 35.0086 22.5931 34.9609L24.0424 35.896C24.0081 35.9437 23.9738 35.9914 23.9395 36.0391Z" fill="#A9BBC2"/>
<path d="M24.0411 35.8951L22.5918 34.9601C22.6347 34.9028 22.6861 34.8456 22.729 34.7979L24.1783 35.7329C24.1354 35.7902 24.0839 35.8379 24.0411 35.8951Z" fill="#ADC0C7"/>
<path d="M24.1778 35.7339L22.7285 34.7989C22.8657 34.6557 23.0029 34.5222 23.1573 34.4268L24.6065 35.3618C24.4608 35.4667 24.315 35.5908 24.1778 35.7339Z" fill="#B2C5CC"/>
</g>
<path d="M74.2502 1.13493C75.0219 0.638777 75.648 1.03951 75.648 2.02226L75.6651 7.68982L20.6617 43.0214L20.6445 37.3634C20.6445 36.3806 21.262 35.1784 22.0338 34.6823L74.2502 1.13493ZM28.0195 36.4379C28.7227 35.9894 29.2887 34.8826 29.2887 33.9858C29.2887 33.0889 28.7141 32.7263 28.0109 33.1747C27.3077 33.6232 26.7332 34.7205 26.7417 35.6173C26.7332 36.5238 27.3077 36.8863 28.0195 36.4379ZM24.615 38.6229C25.3182 38.1744 25.8842 37.0676 25.8842 36.1707C25.8842 35.2738 25.3096 34.9113 24.6064 35.3597C23.9032 35.8081 23.3287 36.9054 23.3372 37.8023C23.3372 38.7087 23.9118 39.0713 24.615 38.6229ZM31.4154 34.2529C32.1186 33.8045 32.6846 32.7072 32.6846 31.8008C32.6846 30.9039 32.11 30.5413 31.4068 30.9898C30.7036 31.4382 30.1291 32.5355 30.1376 33.4324C30.1376 34.3388 30.7122 34.7109 31.4154 34.2529Z" fill="#A9D6EA"/>
<path d="M31.4099 31.0004C32.1131 30.5519 32.6791 30.9145 32.6876 31.8114C32.6876 32.7083 32.1217 33.8055 31.4185 34.2635C30.7153 34.712 30.1407 34.3494 30.1407 33.4525C30.1321 32.5461 30.7067 31.4488 31.4099 31.0004Z" fill="#5FB7DD"/>
<path d="M28.0115 33.1862C28.7147 32.7377 29.2892 33.0908 29.2892 33.9972C29.2892 34.8941 28.7232 35.9914 28.02 36.4493C27.3168 36.8978 26.7423 36.5352 26.7423 35.6383C26.7337 34.7319 27.2997 33.6346 28.0115 33.1862Z" fill="#5FB7DD"/>
<path d="M24.6071 35.3605C25.3103 34.9121 25.8848 35.2651 25.8848 36.1715C25.8848 37.0684 25.3188 38.1657 24.6156 38.6237C23.9125 39.0721 23.3379 38.7095 23.3379 37.8126C23.3379 36.9062 23.9039 35.8185 24.6071 35.3605Z" fill="#5FB7DD"/>
<path d="M20.6629 43.021L19.2222 42.086L19.2051 36.4185L20.6458 37.363L20.6629 43.021Z" fill="#5FB7DD"/>
<path d="M74.5597 0.992307C74.6369 0.963683 74.714 0.944603 74.7912 0.935062C74.7998 0.935062 74.7998 0.935062 74.8084 0.935062C74.8856 0.92552 74.9627 0.935051 75.0313 0.954134H75.0399C75.1085 0.973216 75.1771 1.00184 75.2457 1.04C75.2457 1.04 75.2372 1.04002 75.2372 1.03048L73.7879 0.0954192C73.7622 0.0763365 73.745 0.066787 73.7193 0.0572457C73.6936 0.0477044 73.6678 0.0381642 73.6421 0.0286228C73.625 0.0190815 73.6078 0.0190722 73.5907 0.0190722C73.5821 0.0190722 73.5821 0.0190722 73.5821 0.0190722C73.5735 0.0190722 73.5735 0.019092 73.5649 0.00955066C73.5392 0.00955066 73.5135 0 73.4792 0C73.4534 0 73.4191 0 73.3848 0C73.3763 0 73.3677 0 73.3505 0C73.342 0 73.3334 0 73.3334 0C73.3162 0 73.2991 0 73.2819 0C73.2391 0.00954134 73.2048 0.0190815 73.1619 0.0286228C73.1447 0.0286228 73.1276 0.0381537 73.1104 0.047695C73.0933 0.0572364 73.0761 0.057255 73.059 0.0667964C73.0418 0.0763377 73.0161 0.0858779 72.9989 0.0954192C72.9389 0.124043 72.8703 0.162195 72.8017 0.20036L20.5853 33.7477C20.4996 33.805 20.4052 33.8718 20.3195 33.9481C20.2937 33.9767 20.2594 34.0053 20.2337 34.034C20.1908 34.0721 20.1565 34.1103 20.1137 34.1485C20.0965 34.1675 20.0794 34.1866 20.0622 34.2057C20.0451 34.2248 20.0279 34.2439 20.0107 34.2629C19.9936 34.282 19.9764 34.3011 19.9593 34.3202C19.9164 34.3679 19.8821 34.4252 19.8478 34.4729C19.8307 34.4919 19.8221 34.511 19.8135 34.5301C19.8049 34.5396 19.8049 34.5492 19.7964 34.5587C19.7878 34.5778 19.7706 34.5969 19.7621 34.616C19.7363 34.6637 19.7106 34.7019 19.6763 34.7496C19.6506 34.7877 19.6248 34.8354 19.6077 34.8831L19.5991 34.8927V34.9022C19.582 34.9404 19.5648 34.9786 19.5391 35.0167C19.5219 35.0644 19.4962 35.1026 19.4791 35.1503C19.4619 35.1884 19.4448 35.2266 19.4276 35.2743C19.4276 35.2743 19.4276 35.2743 19.4276 35.2839C19.4276 35.2839 19.4276 35.2839 19.4276 35.2934C19.4105 35.3411 19.3933 35.3888 19.3762 35.4365C19.359 35.4842 19.3419 35.532 19.3247 35.5797C19.3161 35.5987 19.3161 35.6274 19.3076 35.6465C19.3076 35.656 19.299 35.6655 19.299 35.6751C19.299 35.6942 19.2904 35.7132 19.2818 35.7323C19.2647 35.7896 19.2561 35.8468 19.239 35.9136C19.2304 35.9518 19.2304 35.9899 19.2218 36.0186C19.2218 36.0376 19.2132 36.0567 19.2132 36.0758C19.2132 36.0949 19.2047 36.114 19.2047 36.1235C19.1875 36.2285 19.1875 36.3239 19.1875 36.4288L20.6368 37.3639C20.6368 37.2494 20.6453 37.1254 20.6625 37.0109C20.6625 36.9918 20.6711 36.9727 20.6711 36.9536C20.6882 36.8391 20.7139 36.7246 20.7397 36.6101C20.7397 36.6006 20.7482 36.591 20.7482 36.5815C20.7825 36.4575 20.8254 36.3334 20.8683 36.2189C20.8683 36.2094 20.8683 36.2094 20.8769 36.2094C20.9283 36.0854 20.9798 35.9709 21.0398 35.8564C21.0398 35.8468 21.0398 35.8468 21.0484 35.8373C21.1084 35.7228 21.177 35.6178 21.2456 35.5129C21.2542 35.5033 21.2628 35.4938 21.2628 35.4842C21.3314 35.3888 21.4 35.3029 21.4686 35.2075C21.4857 35.1884 21.4943 35.1694 21.5115 35.1598C21.5715 35.093 21.6315 35.0358 21.6916 34.9785C21.7173 34.9499 21.743 34.9213 21.7687 34.9022C21.8545 34.8259 21.9402 34.7591 22.0346 34.7018L74.251 1.13542C74.3367 1.07817 74.4225 1.03999 74.5082 1.00183C74.534 1.00183 74.5425 0.992307 74.5597 0.992307Z" fill="#95C4DE"/>
<path d="M27.6602 44.5848L27.6687 46.0064L70.2634 18.6419L70.2548 17.2202L27.6602 44.5848Z" fill="#A9D6EA"/>
<path d="M27.6602 50.3685L27.6687 51.7901L70.2634 24.4351L70.2548 23.0039L27.6602 50.3685Z" fill="#A9D6EA"/>
<path d="M27.6602 56.1585L27.6687 57.5802L70.2634 30.2156L70.2548 28.7939L27.6602 56.1585Z" fill="#A9D6EA"/>
<path d="M27.6602 61.9417L27.6687 63.3634L70.2634 35.9988L70.2548 34.5771L27.6602 61.9417Z" fill="#A9D6EA"/>
<path d="M27.6602 67.7317L27.6687 69.1439L70.2634 41.7888L70.2548 40.3672L27.6602 67.7317Z" fill="#A9D6EA"/>
<path d="M27.6602 73.5145L27.6687 74.9361L70.2634 47.5716L70.2548 46.1499L27.6602 73.5145Z" fill="#A9D6EA"/>
<path d="M59.9558 41.8671C59.9558 41.8671 59.4841 40.6267 58.0177 40.6172C58.0091 40.6172 58.3779 42.1533 59.9558 41.8671Z" fill="#131C24"/>
<path d="M58.5332 39.9775C58.5332 39.9775 57.3155 41.7045 57.204 42.1625C57.0925 42.6205 56.578 44.5479 57.4355 45.8741C57.8986 46.5897 58.1559 45.5974 58.2931 44.2998C58.3531 43.7177 58.2845 43.2693 58.9791 42.6396C59.4851 42.1911 60.0511 41.2752 60.2655 40.7886C60.4713 40.3115 58.5332 39.9775 58.5332 39.9775Z" fill="#EFB185"/>
<path d="M60.231 40.8927C60.0166 41.3697 59.3992 42.1998 59.2963 42.9059C59.1762 43.7551 58.3444 43.7073 58.2844 44.2989C58.1815 45.3007 57.9757 46.1404 57.6927 46.1213C57.8213 45.3675 57.0238 44.776 57.8899 43.0204C58.2072 42.3811 59.2448 41.0549 59.8365 40.5015C60.1796 40.6828 60.3168 40.7018 60.231 40.8927Z" fill="#E6A376"/>
<path d="M59.7512 40.4824C59.7512 40.4824 59.4853 42.9441 59.3138 43.6692C59.1337 44.4039 58.7393 44.8237 58.6621 44.6711C58.5763 44.5089 58.9965 42.3048 58.2762 42.3621C57.8903 42.3907 59.6397 40.8259 59.7512 40.4824Z" fill="#EFB185"/>
<path d="M65.1095 20.6372C65.1095 20.6372 62.8885 20.0647 61.9709 24.969C61.0447 29.8828 61.0447 31.791 60.4016 33.4703C59.7498 35.1496 58.0176 40.6072 58.0176 40.6072C58.0176 40.6072 59.424 40.6835 59.9556 41.8571C59.9556 41.8571 63.6002 35.121 64.312 32.1536C65.0324 29.1958 67.4164 22.0016 65.1095 20.6372Z" fill="#2C6BB7"/>
<path d="M60.3938 33.4804C61.0455 31.8011 61.0455 29.8833 61.9631 24.979C62.4605 22.317 63.3523 21.2674 64.0555 20.8667C66.1479 22.4124 63.8411 29.3871 63.1379 32.3068C62.5977 34.5299 60.4967 39.062 59.459 41.2184C58.7129 40.6077 58.0098 40.6268 58.0098 40.6268C58.0098 40.6268 59.7506 35.1596 60.3938 33.4804Z" fill="#3580DC"/>
<path d="M67.3309 68.1147C67.3309 68.1147 67.9226 69.6508 67.3309 70.042C66.7392 70.4427 66.662 70.8721 65.7187 70.7862C64.7754 70.7004 64.9126 71.0439 64.5867 71.4446C64.2609 71.8358 60.925 73.4578 60.2904 72.6659C59.6644 71.874 61.4309 70.958 62.057 70.5C62.683 70.042 64.1837 68.2101 64.2266 67.6853C64.2609 67.151 67.3309 68.1147 67.3309 68.1147Z" fill="#111114"/>
<path d="M67.3306 70.0333C66.7389 70.4341 66.6617 70.8634 65.7184 70.7776C64.7751 70.6917 64.9123 71.0352 64.5864 71.4359C64.2605 71.8271 60.9247 73.4491 60.2901 72.6572C60.0757 72.39 60.1443 72.1038 60.3415 71.8271C60.5731 71.8748 60.8989 71.9416 61.3191 72.018C62.3053 72.2088 63.5659 70.9493 64.0547 70.4818C64.5435 70.0143 65.161 70.1955 66.0099 70.0429C66.8503 69.8902 66.7389 68.4495 66.7389 68.4495L67.3649 68.2109C67.4849 68.5544 67.828 69.6994 67.3306 70.0333Z" fill="#0A0A0A"/>
<path d="M73.2908 73.0854C73.2908 73.0854 73.5395 74.8983 72.9134 75.8715C72.2874 76.8543 70.9153 78.5431 70.3151 78.4668C69.7233 78.3904 69.629 78.0947 69.629 78.0947C69.629 78.0947 69.3803 76.6253 69.8177 75.1559C70.255 73.6865 70.2893 73.0854 70.2893 73.0854H73.2908Z" fill="#111114"/>
<path d="M72.9141 75.873C72.3653 76.7317 71.2333 78.1438 70.5645 78.4205C71.4477 77.1611 70.1271 77.4187 71.1219 76.8176C72.4854 75.9875 71.6107 75.3005 72.2195 75.1097C72.8284 74.9189 72.3825 73.2396 72.3825 73.2396L72.7169 73.0679H73.2915C73.2915 73.087 73.5402 74.8998 72.9141 75.873Z" fill="#0A0A0A"/>
<path d="M66.0617 43.631C66.0617 43.631 63.2489 43.2971 62.3142 40.9785C62.3142 40.9785 62.0569 46.0831 62.6229 52.0083C63.1975 57.9239 63.6606 68.3431 63.6606 68.3431C63.6606 68.3431 65.4786 70.2513 67.3566 68.3431C67.3566 68.3431 67.8883 61.4637 67.3566 57.6568C67.3566 57.6568 67.7082 50.9874 67.1251 47.6575C66.5334 44.3084 66.0617 43.631 66.0617 43.631Z" fill="#2D2D2D"/>
<path d="M63.66 68.3356C63.66 68.3356 63.1883 57.926 62.6224 52.0009C62.0564 46.0757 62.245 40.1982 62.245 40.1982C62.9311 41.8966 64.6891 43.2992 65.538 43.5186C65.4694 45.7799 65.2808 52.4398 65.3151 54.6534C65.3408 56.762 65.7181 65.4828 65.8725 69.1467C64.6205 69.347 63.66 68.3356 63.66 68.3356Z" fill="#2D2D2D"/>
<path d="M72.6573 43.2705C72.6573 43.2705 72.9232 46.734 72.9832 52.1153C73.0432 57.4966 73.3948 59.5194 73.5063 60.3495C73.6264 61.1701 74.038 70.1771 73.7979 72.8105C73.7979 72.8105 72.2714 75.4344 69.8617 72.8105C69.8617 72.8105 69.4501 63.584 69.0385 61.4754C68.6268 59.3763 66.3286 49.1671 65.4024 45.5032C64.9908 43.8812 64.8965 43.2705 64.8965 43.2705C64.8965 43.2705 68.9613 46.5146 72.6573 43.2705Z" fill="#2D2D2D"/>
<path d="M69.8787 72.8084C69.8787 72.8084 69.467 63.5819 69.0554 61.4733C68.6438 59.3742 66.3455 49.1649 65.4194 45.5011C65.0078 43.879 64.0645 42.6387 64.0645 42.6387C64.0645 42.6387 66.7229 44.7187 69.0297 44.7092C69.1326 45.5011 70.1102 53.0387 70.3332 56.3305C70.5561 59.5936 72.5714 71.0909 72.0311 73.9724C71.4308 73.9915 70.7105 73.7053 69.8787 72.8084Z" fill="#2D2D2D"/>
<path d="M70.0148 21.7929C70.0148 21.7929 74.1567 24.5695 74.2339 24.9416C74.3197 25.3137 75.3745 26.2869 73.5136 30.3611C73.5136 30.3611 71.0953 34.7501 71.8757 39.3872C72.3302 42.0778 72.7932 43.4995 72.7932 43.4995C72.7932 43.4995 70.6922 46.4955 65.4783 43.8811C64.4235 43.3564 62.717 41.5722 62.2539 40.2077C62.2539 40.2077 63 36.353 62.6226 31.7541C62.2453 27.1456 62.2453 21.2205 64.6122 20.6194C64.6036 20.6098 65.2468 19.8656 70.0148 21.7929Z" fill="#3580DC"/>
<path d="M69.6621 17.7847C69.6621 17.7847 68.6673 20.2082 69.9022 21.5058C70.5882 22.2309 69.5077 24.435 67.1751 24.6735C67.1751 24.6735 66.1032 24.5686 66.1461 24.1297C66.249 23.1374 65.8374 22.6698 65.3657 22.0019C64.9026 21.3531 69.6621 17.7847 69.6621 17.7847Z" fill="#EFB185"/>
<path d="M69.9033 21.5164C69.9804 21.6023 70.0405 21.7072 70.0748 21.8408C69.0714 21.0107 67.3906 21.2206 67.3906 21.2206L69.2172 18.1388C69.2944 18.0815 69.363 18.0243 69.423 17.9766L69.5259 18.2056C69.303 18.9403 68.9857 20.5336 69.9033 21.5164Z" fill="#DD9569"/>
<path d="M69.9706 16.4677C69.9706 16.4677 69.8077 19.4733 68.1955 21.0953C66.7633 22.536 65.0139 23.6237 64.3793 21.5724C63.8734 19.9408 62.5356 15.7807 63.7533 14.693C65.3227 13.2905 65.76 11.8116 67.861 12.2886C67.8696 12.2886 70.305 13.0615 69.9706 16.4677Z" fill="#EFB185"/>
<path d="M69.9713 16.4693C69.9713 16.4693 70.1085 18.9977 68.2133 21.135C67.8103 21.593 67.2528 21.9937 66.8326 22.2895C67.5701 21.4594 67.6302 21.2304 68.1619 20.2763C68.6935 19.3222 67.1242 19.9233 67.9303 17.5856C68.2047 16.7937 66.4896 18.0532 66.078 18.1104C63.6168 18.4634 63.5825 16.87 63.4453 16.2117C63.4539 15.9159 63.4882 15.6297 63.5396 15.3721L63.7026 14.8377C63.7283 14.79 63.7454 14.7423 63.7712 14.6946C63.9856 14.2748 64.2 13.9027 64.4315 13.5878C65.4863 13.4351 68.4791 12.9867 68.5392 12.9962C68.5821 12.9962 69.1995 13.6928 69.7826 14.3416C69.9627 14.9045 70.057 15.601 69.9713 16.4693Z" fill="#E6A376"/>
<path d="M69.2857 19.4743C69.2857 19.4743 70.9922 17.108 69.8946 14.3124C69.8946 14.3124 69.2 12.032 66.8245 12.1274C65.684 12.1751 63.7545 12.6999 63.2485 15.3524C63.0942 16.1825 63.3086 17.7759 65.9584 16.5069C66.3357 16.3161 67.3648 15.9917 67.785 16.297C68.2052 16.6119 68.3424 17.2988 68.2481 17.919C68.1623 18.4629 68.5825 18.4533 68.6254 18.3293C68.6597 18.2053 68.9856 16.631 69.5687 17.1271C70.1004 17.5755 69.32 19.3598 69.2857 19.4743Z" fill="#341C09"/>
<path d="M69.2855 19.4756C69.3198 19.3706 70.1002 17.5769 69.5771 17.138C68.9939 16.6418 68.6681 18.2161 68.6338 18.3402C68.5909 18.4547 68.1707 18.4738 68.2565 17.9299C68.3508 17.3097 68.2136 16.6132 67.7934 16.3079C67.4075 16.0216 66.5156 16.3556 65.9668 16.5178C66.3784 16.117 67.2788 15.8403 67.4847 14.9339C67.7591 13.7222 68.2993 13.0829 68.8482 12.7871C69.6285 13.4359 69.903 14.3233 69.903 14.3233C70.992 17.0998 69.2855 19.4756 69.2855 19.4756Z" fill="#221101"/>
<path d="M61.9277 15.0367C61.9277 15.0367 63.034 18.1376 66.104 16.5729C66.104 16.5729 67.639 15.8286 68.0507 14.0635C68.1364 13.6818 68.428 13.033 68.9597 12.8804C68.9597 12.8804 67.922 11.6782 65.7353 12.2316C64.7062 12.4892 63.7886 13.7963 63.5485 14.0253C63.3084 14.2543 62.7767 15.1226 61.9277 15.0367Z" fill="#341C09"/>
<path d="M74.2347 24.9406C74.3204 25.3127 75.3752 26.2859 73.5143 30.36C73.5143 30.36 71.096 34.749 71.8764 39.3861C72.3309 42.0768 72.794 43.4985 72.794 43.4985C72.794 43.4985 71.7478 44.9774 69.3123 44.9392C68.712 40.9509 69.4152 33.919 69.7582 29.072C69.9812 25.9519 71.3361 24.3013 72.4338 23.4712C73.36 24.1295 74.2004 24.7688 74.2347 24.9406Z" fill="#2C6BB7"/>
<path d="M65.3413 25.7797C65.3413 25.7797 65.4442 23.8523 65.7615 23.4898C66.0788 23.1367 65.7358 22.5452 65.4013 23.0032C65.0669 23.4612 64.9468 24.1099 64.9468 24.1099C64.9468 24.1099 64.6295 21.8773 65.1955 21.6101C65.7701 21.343 63.6005 21.5624 63.2917 22.612C62.9744 23.6615 62.4685 24.7588 64.1664 26.8102C64.1664 26.8197 64.9811 26.6479 65.3413 25.7797Z" fill="#E6A376"/>
<path d="M72.1582 24.7782C73.3073 24.053 75.537 24.6351 74.3707 27.8123C73.2044 30.9991 68.1449 38.3174 66.5755 38.1456C65.0062 37.9739 65.5808 34.4817 66.8242 32.459C68.0677 30.4266 71.0863 25.4652 72.1582 24.7782Z" fill="#2C6BB7"/>
<path d="M66.1314 38.0405C66.1314 38.0405 63.2157 33.9664 63.5502 26.0757C63.5502 26.0757 64.3991 26.5527 65.4282 25.6177C65.4282 25.6177 69.8789 39.3381 66.1314 38.0405Z" fill="#2C6BB7"/>
</svg>
